<svg class="svg-scaled" xmlns="http://www.w3.org/2000/svg" xmlns:xlink="http://www.w3.org/1999/xlink" overflow="hidden" viewBox="0 0 206 25"><g transform="translate(-998 -300)"><path class="chess-text" d="M1171.83 310.529C1171.03 310.529 1170.31 310.853 1169.68 311.501 1169.06 312.149 1168.65 312.975 1168.46 313.979L1172.54 313.979C1173.29 313.979 1173.77 313.938 1173.98 313.855 1174.2 313.773 1174.31 313.577 1174.31 313.267 1174.31 312.464 1174.07 311.806 1173.6 311.295 1173.14 310.784 1172.55 310.529 1171.83 310.529ZM1171.95 308.94C1173.93 308.94 1175.48 309.461 1176.58 310.501 1177.69 311.542 1178.24 313.002 1178.24 314.882 1178.24 315.174 1178.19 315.352 1178.1 315.416 1178.01 315.48 1177.74 315.512 1177.31 315.512L1168.27 315.512C1168.19 315.676 1168.15 315.977 1168.15 316.415 1168.15 318.204 1168.55 319.619 1169.35 320.66 1170.14 321.7 1171.23 322.22 1172.59 322.22 1173.38 322.22 1174.16 322.047 1174.94 321.7 1175.72 321.353 1176.47 320.86 1177.2 320.221L1177.99 321.18C1176.28 323.06 1174.16 324 1171.61 324 1170.45 324 1169.39 323.822 1168.45 323.466 1167.5 323.11 1166.69 322.608 1166.02 321.96 1165.34 321.312 1164.82 320.541 1164.44 319.646 1164.07 318.752 1163.88 317.757 1163.88 316.662 1163.88 315.53 1164.08 314.494 1164.47 313.554 1164.87 312.614 1165.42 311.802 1166.14 311.117 1166.87 310.433 1167.72 309.899 1168.7 309.516 1169.68 309.132 1170.77 308.94 1171.95 308.94ZM1198.13 308.913C1198.71 308.913 1199.28 308.995 1199.86 309.159 1200.43 309.324 1200.93 309.552 1201.36 309.844L1201.86 309.187 1202.59 309.187 1202.59 313.321 1201.5 313.321C1201.07 312.281 1200.62 311.532 1200.16 311.076 1199.71 310.62 1199.15 310.392 1198.49 310.392 1197.97 310.392 1197.55 310.529 1197.24 310.802 1196.93 311.076 1196.78 311.441 1196.78 311.898 1196.78 312.409 1197.01 312.892 1197.47 313.349 1197.93 313.805 1198.69 314.307 1199.76 314.855 1200.51 315.256 1201.15 315.649 1201.7 316.032 1202.24 316.415 1202.68 316.803 1203.02 317.196 1203.35 317.588 1203.6 317.999 1203.76 318.428 1203.92 318.857 1204 319.318 1204 319.811 1204 320.45 1203.88 321.025 1203.63 321.536 1203.39 322.047 1203.04 322.485 1202.59 322.85 1202.15 323.215 1201.61 323.498 1200.98 323.699 1200.35 323.899 1199.65 324 1198.89 324 1198.08 324 1197.33 323.895 1196.64 323.685 1195.94 323.475 1195.37 323.169 1194.92 322.768L1194.31 323.726 1193.43 323.726 1193.43 318.743 1194.61 318.743C1194.93 320.057 1195.39 321.015 1195.99 321.618 1196.59 322.22 1197.37 322.521 1198.32 322.521 1199.02 322.521 1199.56 322.38 1199.94 322.097 1200.32 321.814 1200.52 321.426 1200.52 320.933 1200.52 320.422 1200.28 319.925 1199.81 319.441 1199.34 318.957 1198.59 318.442 1197.54 317.894 1196.11 317.146 1195.09 316.402 1194.47 315.662 1193.86 314.923 1193.55 314.088 1193.55 313.157 1193.55 312.555 1193.66 311.993 1193.9 311.473 1194.13 310.953 1194.45 310.501 1194.85 310.118 1195.26 309.734 1195.74 309.438 1196.3 309.228 1196.86 309.018 1197.47 308.913 1198.13 308.913ZM1185.08 308.913C1185.66 308.913 1186.24 308.995 1186.81 309.159 1187.38 309.324 1187.88 309.552 1188.31 309.844L1188.82 309.187 1189.55 309.187 1189.55 313.321 1188.45 313.321C1188.02 312.281 1187.58 311.532 1187.12 311.076 1186.66 310.62 1186.1 310.392 1185.45 310.392 1184.92 310.392 1184.51 310.529 1184.2 310.802 1183.89 311.076 1183.73 311.441 1183.73 311.898 1183.73 312.409 1183.96 312.892 1184.42 313.349 1184.88 313.805 1185.64 314.307 1186.71 314.855 1187.46 315.256 1188.11 315.649 1188.65 316.032 1189.19 316.415 1189.63 316.803 1189.97 317.196 1190.31 317.588 1190.56 317.999 1190.71 318.428 1190.87 318.857 1190.95 319.318 1190.95 319.811 1190.95 320.45 1190.83 321.025 1190.59 321.536 1190.35 322.047 1190 322.485 1189.55 322.85 1189.1 323.215 1188.56 323.498 1187.93 323.699 1187.31 323.899 1186.61 324 1185.84 324 1185.03 324 1184.28 323.895 1183.59 323.685 1182.9 323.475 1182.33 323.169 1181.88 322.768L1181.26 323.726 1180.39 323.726 1180.39 318.743 1181.57 318.743C1181.89 320.057 1182.35 321.015 1182.95 321.618 1183.54 322.22 1184.32 322.521 1185.28 322.521 1185.97 322.521 1186.51 322.38 1186.89 322.097 1187.28 321.814 1187.47 321.426 1187.47 320.933 1187.47 320.422 1187.24 319.925 1186.77 319.441 1186.3 318.957 1185.54 318.442 1184.49 317.894 1183.07 317.146 1182.05 316.402 1181.43 315.662 1180.81 314.923 1180.5 314.088 1180.5 313.157 1180.5 312.555 1180.62 311.993 1180.85 311.473 1181.09 310.953 1181.4 310.501 1181.81 310.118 1182.21 309.734 1182.69 309.438 1183.25 309.228 1183.82 309.018 1184.43 308.913 1185.08 308.913ZM1078.8 302.566C1079.37 302.566 1079.85 302.757 1080.25 303.139 1080.64 303.521 1080.83 303.992 1080.83 304.552 1080.83 305.096 1080.64 305.559 1080.25 305.941 1079.85 306.323 1079.37 306.514 1078.8 306.514 1078.24 306.514 1077.76 306.323 1077.37 305.941 1076.98 305.559 1076.78 305.096 1076.78 304.552 1076.78 303.992 1076.98 303.521 1077.37 303.139 1077.76 302.757 1078.24 302.566 1078.8 302.566ZM1057.01 302.566C1057.59 302.566 1058.07 302.757 1058.46 303.139 1058.86 303.521 1059.05 303.992 1059.05 304.552 1059.05 305.096 1058.86 305.559 1058.46 305.941 1058.07 306.323 1057.59 306.514 1057.01 306.514 1056.46 306.514 1055.98 306.323 1055.59 305.941 1055.2 305.559 1055 305.096 1055 304.552 1055 303.992 1055.2 303.521 1055.59 303.139 1055.98 302.757 1056.46 302.566 1057.01 302.566ZM1132.56 302.369C1133.7 302.369 1134.77 302.524 1135.76 302.835 1136.76 303.145 1137.83 303.647 1138.99 304.341L1139.53 302.643 1140.9 302.643 1140.34 309.57 1139.22 309.57C1138.83 307.891 1138.06 306.567 1136.93 305.6 1135.8 304.633 1134.42 304.149 1132.81 304.149 1131.71 304.149 1130.72 304.363 1129.86 304.792 1129 305.221 1128.27 305.833 1127.68 306.627 1127.09 307.421 1126.64 308.388 1126.34 309.529 1126.03 310.67 1125.87 311.952 1125.87 313.376 1125.87 316.206 1126.47 318.382 1127.66 319.907 1128.85 321.431 1130.6 322.193 1132.92 322.193 1134.8 322.193 1136.35 321.7 1137.57 320.714 1138.8 319.729 1139.68 318.259 1140.2 316.306L1141.44 316.306 1141.44 323.726 1140.12 323.726 1139.72 321.563C1137.66 323.188 1135.16 324 1132.22 324 1130.52 324 1128.97 323.754 1127.59 323.261 1126.2 322.768 1125.02 322.07 1124.04 321.166 1123.07 320.263 1122.32 319.163 1121.78 317.867 1121.25 316.571 1120.98 315.129 1120.98 313.541 1120.98 311.879 1121.26 310.364 1121.83 308.995 1122.39 307.626 1123.18 306.449 1124.2 305.463 1125.22 304.477 1126.44 303.715 1127.85 303.177 1129.27 302.638 1130.84 302.369 1132.56 302.369ZM1149.54 301 1149.54 311.104 1149.66 311.104C1150.24 310.355 1150.89 309.808 1151.61 309.461 1152.33 309.114 1153.2 308.94 1154.21 308.94 1156.04 308.94 1157.47 309.488 1158.48 310.583 1158.97 311.131 1159.35 311.793 1159.63 312.568 1159.91 313.344 1160.05 314.152 1160.05 314.992L1160.05 319.236C1160.05 320.002 1160.07 320.6 1160.11 321.029 1160.15 321.458 1160.24 321.787 1160.4 322.015 1160.56 322.243 1160.8 322.394 1161.12 322.467 1161.44 322.54 1161.88 322.595 1162.44 322.631L1162.44 323.726 1153.65 323.726 1153.65 322.631C1154.21 322.613 1154.65 322.562 1154.98 322.48 1155.31 322.398 1155.56 322.248 1155.74 322.029 1155.92 321.81 1156.03 321.495 1156.08 321.084 1156.12 320.673 1156.15 320.121 1156.15 319.427L1156.15 316.06C1156.15 314.125 1155.93 312.756 1155.5 311.952 1155.07 311.149 1154.33 310.748 1153.28 310.748 1152.16 310.748 1151.27 311.149 1150.61 311.952 1150.29 312.372 1150.04 312.892 1149.87 313.513 1149.69 314.134 1149.6 314.827 1149.6 315.594L1149.6 319.236C1149.6 319.984 1149.62 320.573 1149.67 321.002 1149.72 321.431 1149.82 321.764 1149.98 322.001 1150.14 322.238 1150.38 322.394 1150.71 322.467 1151.04 322.54 1151.48 322.595 1152.04 322.631L1152.04 323.726 1143.19 323.726 1143.19 322.631C1143.75 322.595 1144.2 322.54 1144.54 322.467 1144.88 322.394 1145.13 322.248 1145.3 322.029 1145.47 321.81 1145.58 321.495 1145.62 321.084 1145.67 320.673 1145.69 320.121 1145.69 319.427L1145.69 308.174C1145.69 307.079 1145.68 306.216 1145.65 305.586 1145.62 304.957 1145.57 304.477 1145.5 304.149 1145.44 303.911 1145.38 303.724 1145.3 303.587 1145.23 303.451 1145.11 303.341 1144.95 303.259 1144.79 303.177 1144.57 303.122 1144.3 303.095 1144.03 303.067 1143.69 303.054 1143.28 303.054L1143.28 302.041Z" fill-rule="evenodd"/><path class="decision-text" d="M1092.53 311.385C1092.01 311.385 1091.53 311.517 1091.1 311.782 1090.66 312.047 1090.29 312.419 1089.99 312.897 1089.68 313.376 1089.45 313.953 1089.28 314.628 1089.12 315.304 1089.04 316.051 1089.04 316.872 1089.04 317.726 1089.12 318.496 1089.28 319.18 1089.45 319.863 1089.68 320.444 1089.99 320.923 1090.29 321.402 1090.66 321.774 1091.09 322.038 1091.51 322.303 1091.99 322.436 1092.53 322.436 1093.07 322.436 1093.56 322.303 1094.01 322.038 1094.45 321.774 1094.83 321.397 1095.14 320.91 1095.46 320.423 1095.7 319.838 1095.87 319.154 1096.05 318.47 1096.13 317.709 1096.13 316.872 1096.13 316.051 1096.05 315.308 1095.87 314.641 1095.7 313.974 1095.46 313.397 1095.14 312.91 1094.83 312.423 1094.45 312.047 1094.01 311.782 1093.56 311.517 1093.07 311.385 1092.53 311.385ZM1030.38 311.385C1029.63 311.385 1028.97 311.688 1028.38 312.295 1027.8 312.902 1027.42 313.675 1027.25 314.616L1031.03 314.616C1031.73 314.616 1032.18 314.577 1032.38 314.5 1032.58 314.423 1032.68 314.239 1032.68 313.949 1032.68 313.197 1032.46 312.581 1032.02 312.103 1031.59 311.624 1031.04 311.385 1030.38 311.385ZM1045.76 309.898C1046.54 309.898 1047.27 309.975 1047.94 310.128 1048.61 310.282 1049.18 310.496 1049.66 310.769 1050.14 311.043 1050.52 311.363 1050.79 311.731 1051.07 312.098 1051.21 312.496 1051.21 312.923 1051.21 313.419 1051.07 313.812 1050.78 314.103 1050.49 314.393 1050.11 314.539 1049.62 314.539 1049.22 314.539 1048.87 314.436 1048.56 314.231 1048.26 314.026 1047.96 313.692 1047.66 313.231 1047.4 312.821 1047.18 312.496 1047 312.256 1046.81 312.017 1046.65 311.833 1046.49 311.705 1046.33 311.577 1046.18 311.492 1046.02 311.449 1045.86 311.406 1045.67 311.385 1045.44 311.385 1044.44 311.385 1043.65 311.846 1043.1 312.769 1042.54 313.692 1042.26 314.983 1042.26 316.641 1042.26 318.419 1042.6 319.786 1043.27 320.744 1043.94 321.701 1044.9 322.18 1046.15 322.18 1046.86 322.18 1047.58 322.047 1048.29 321.782 1049 321.517 1049.68 321.137 1050.32 320.641L1051 321.615C1050.34 322.333 1049.52 322.889 1048.54 323.282 1047.55 323.675 1046.49 323.872 1045.34 323.872 1044.28 323.872 1043.31 323.705 1042.44 323.372 1041.57 323.039 1040.83 322.573 1040.2 321.974 1039.57 321.376 1039.09 320.654 1038.75 319.808 1038.41 318.962 1038.24 318.026 1038.24 317 1038.24 315.94 1038.43 314.974 1038.79 314.103 1039.16 313.231 1039.67 312.483 1040.33 311.859 1040.99 311.235 1041.78 310.752 1042.71 310.41 1043.63 310.068 1044.64 309.898 1045.76 309.898ZM1107.06 309.897 1107.4 312.154 1107.5 312.154C1108.08 311.436 1108.75 310.88 1109.54 310.487 1110.32 310.094 1111.18 309.897 1112.12 309.897 1113.23 309.897 1114.13 310.047 1114.82 310.346 1115.51 310.645 1116.12 311.145 1116.66 311.846 1116.96 312.239 1117.22 312.748 1117.44 313.372 1117.67 313.996 1117.78 314.855 1117.78 315.949L1117.78 319.564C1117.78 320.265 1117.8 320.816 1117.85 321.218 1117.89 321.62 1117.99 321.927 1118.13 322.141 1118.28 322.355 1118.5 322.496 1118.8 322.564 1119.1 322.633 1119.5 322.684 1120 322.718L1120 323.744 1111.83 323.744 1111.83 322.718C1112.35 322.701 1112.77 322.654 1113.07 322.577 1113.38 322.5 1113.61 322.359 1113.76 322.154 1113.92 321.949 1114.02 321.654 1114.08 321.269 1114.13 320.885 1114.16 320.376 1114.16 319.744L1114.16 316.256C1114.16 315.385 1114.1 314.65 1114 314.051 1113.89 313.453 1113.72 312.97 1113.49 312.603 1113.26 312.235 1112.95 311.97 1112.56 311.808 1112.18 311.645 1111.7 311.564 1111.13 311.564 1110.57 311.564 1110.09 311.718 1109.69 312.026 1109.29 312.333 1108.95 312.761 1108.65 313.308 1108.49 313.615 1108.36 314.013 1108.25 314.5 1108.13 314.987 1108.08 315.496 1108.08 316.026L1108.08 319.564C1108.08 320.265 1108.1 320.816 1108.14 321.218 1108.18 321.62 1108.28 321.927 1108.43 322.141 1108.58 322.355 1108.8 322.496 1109.11 322.564 1109.41 322.633 1109.82 322.684 1110.35 322.718L1110.35 323.744 1102.13 323.744 1102.13 322.718C1102.63 322.684 1103.04 322.633 1103.34 322.564 1103.64 322.496 1103.88 322.359 1104.04 322.154 1104.21 321.949 1104.32 321.658 1104.37 321.282 1104.42 320.906 1104.45 320.393 1104.45 319.744L1104.45 316.539C1104.45 315.53 1104.43 314.714 1104.4 314.09 1104.36 313.466 1104.32 313.043 1104.27 312.821 1104.21 312.598 1104.14 312.415 1104.06 312.269 1103.97 312.124 1103.84 312.013 1103.67 311.936 1103.49 311.859 1103.27 311.808 1103.01 311.782 1102.75 311.756 1102.42 311.744 1102.02 311.744L1102.02 310.872ZM1092.53 309.897C1093.58 309.897 1094.56 310.073 1095.49 310.423 1096.43 310.774 1097.24 311.256 1097.95 311.872 1098.65 312.487 1099.21 313.218 1099.62 314.064 1100.03 314.91 1100.23 315.838 1100.23 316.846 1100.23 317.889 1100.03 318.846 1099.62 319.718 1099.21 320.59 1098.65 321.342 1097.95 321.974 1097.24 322.607 1096.43 323.103 1095.49 323.462 1094.56 323.821 1093.58 324 1092.53 324 1091.51 324 1090.53 323.825 1089.61 323.474 1088.69 323.124 1087.88 322.633 1087.18 322 1086.49 321.368 1085.94 320.611 1085.54 319.731 1085.14 318.851 1084.94 317.889 1084.94 316.846 1084.94 315.838 1085.14 314.906 1085.54 314.051 1085.94 313.197 1086.49 312.462 1087.18 311.846 1087.88 311.231 1088.69 310.752 1089.61 310.41 1090.53 310.068 1091.51 309.897 1092.53 309.897ZM1080.9 309.897 1080.9 319.539C1080.9 320.222 1080.92 320.769 1080.97 321.179 1081.03 321.59 1081.13 321.906 1081.29 322.128 1081.44 322.35 1081.67 322.5 1081.97 322.577 1082.26 322.654 1082.66 322.701 1083.17 322.718L1083.17 323.744 1074.95 323.744 1074.95 322.718C1075.43 322.701 1075.83 322.645 1076.13 322.551 1076.44 322.457 1076.67 322.303 1076.84 322.09 1077 321.876 1077.12 321.577 1077.18 321.192 1077.24 320.808 1077.27 320.316 1077.27 319.718L1077.27 316.564C1077.27 315.573 1077.25 314.757 1077.22 314.115 1077.18 313.474 1077.14 313.034 1077.09 312.795 1077 312.368 1076.8 312.085 1076.5 311.949 1076.19 311.812 1075.64 311.744 1074.84 311.744L1074.84 310.872ZM1059.15 309.897 1059.15 319.539C1059.15 320.222 1059.18 320.769 1059.23 321.179 1059.28 321.59 1059.39 321.906 1059.54 322.128 1059.7 322.35 1059.93 322.5 1060.22 322.577 1060.52 322.654 1060.92 322.701 1061.42 322.718L1061.42 323.744 1053.2 323.744 1053.2 322.718C1053.69 322.701 1054.09 322.645 1054.39 322.551 1054.69 322.457 1054.93 322.303 1055.09 322.09 1055.26 321.876 1055.37 321.577 1055.43 321.192 1055.49 320.808 1055.53 320.316 1055.53 319.718L1055.53 316.564C1055.53 315.573 1055.51 314.757 1055.47 314.115 1055.44 313.474 1055.39 313.034 1055.34 312.795 1055.26 312.368 1055.06 312.085 1054.76 311.949 1054.45 311.812 1053.9 311.744 1053.1 311.744L1053.1 310.872ZM1030.48 309.897C1032.33 309.897 1033.76 310.385 1034.79 311.359 1035.82 312.333 1036.33 313.701 1036.33 315.462 1036.33 315.735 1036.29 315.902 1036.2 315.962 1036.11 316.021 1035.87 316.051 1035.47 316.051L1027.07 316.051C1027 316.205 1026.96 316.487 1026.96 316.897 1026.96 318.573 1027.33 319.897 1028.07 320.872 1028.81 321.846 1029.82 322.333 1031.09 322.333 1031.82 322.333 1032.54 322.171 1033.26 321.846 1033.99 321.521 1034.69 321.06 1035.36 320.461L1036.09 321.359C1034.51 323.12 1032.54 324 1030.17 324 1029.09 324 1028.11 323.833 1027.24 323.5 1026.36 323.167 1025.61 322.697 1024.98 322.09 1024.35 321.483 1023.87 320.761 1023.52 319.923 1023.17 319.085 1023 318.154 1023 317.128 1023 316.068 1023.18 315.098 1023.54 314.218 1023.91 313.338 1024.43 312.577 1025.1 311.936 1025.77 311.295 1026.56 310.795 1027.47 310.436 1028.38 310.077 1029.39 309.897 1030.48 309.897ZM1068 309.872C1068.54 309.872 1069.07 309.949 1069.6 310.103 1070.13 310.257 1070.6 310.47 1071 310.744L1071.47 310.128 1072.15 310.128 1072.15 314 1071.13 314C1070.73 313.026 1070.32 312.325 1069.89 311.898 1069.46 311.47 1068.95 311.257 1068.34 311.257 1067.85 311.257 1067.46 311.385 1067.18 311.641 1066.89 311.898 1066.74 312.239 1066.74 312.667 1066.74 313.145 1066.96 313.598 1067.38 314.026 1067.81 314.453 1068.52 314.923 1069.51 315.436 1070.21 315.812 1070.81 316.18 1071.31 316.539 1071.82 316.897 1072.22 317.261 1072.54 317.628 1072.85 317.996 1073.08 318.38 1073.23 318.782 1073.38 319.184 1073.45 319.615 1073.45 320.077 1073.45 320.675 1073.34 321.214 1073.11 321.692 1072.89 322.171 1072.56 322.581 1072.15 322.923 1071.73 323.265 1071.23 323.53 1070.65 323.718 1070.06 323.906 1069.42 324 1068.7 324 1067.95 324 1067.26 323.902 1066.61 323.705 1065.97 323.509 1065.44 323.222 1065.02 322.846L1064.45 323.744 1063.64 323.744 1063.64 319.077 1064.74 319.077C1065.03 320.308 1065.46 321.205 1066.01 321.769 1066.57 322.333 1067.29 322.615 1068.18 322.615 1068.82 322.615 1069.32 322.483 1069.68 322.218 1070.04 321.953 1070.22 321.59 1070.22 321.128 1070.22 320.65 1070 320.184 1069.56 319.731 1069.13 319.278 1068.42 318.795 1067.45 318.282 1066.13 317.581 1065.18 316.885 1064.61 316.192 1064.03 315.5 1063.74 314.718 1063.74 313.846 1063.74 313.282 1063.85 312.757 1064.07 312.269 1064.29 311.782 1064.58 311.359 1064.96 311 1065.33 310.641 1065.78 310.363 1066.3 310.167 1066.82 309.97 1067.39 309.872 1068 309.872ZM1006.02 305.564C1005.72 305.564 1005.58 305.709 1005.58 306L1005.58 319.256C1005.58 320.248 1005.89 320.983 1006.51 321.462 1007.14 321.94 1008.11 322.18 1009.41 322.18 1011.69 322.18 1013.44 321.504 1014.67 320.154 1015.9 318.803 1016.51 316.838 1016.51 314.256 1016.51 312.889 1016.34 311.667 1016.01 310.59 1015.68 309.513 1015.2 308.603 1014.58 307.859 1013.95 307.115 1013.19 306.547 1012.29 306.154 1011.4 305.761 1010.39 305.564 1009.28 305.564ZM999.418 304 1009.33 304C1011 304 1012.54 304.256 1013.95 304.769 1015.36 305.282 1016.58 305.992 1017.6 306.898 1018.63 307.803 1019.43 308.88 1020 310.128 1020.58 311.376 1020.87 312.735 1020.87 314.205 1020.87 315.607 1020.6 316.893 1020.06 318.064 1019.52 319.235 1018.77 320.239 1017.8 321.077 1016.83 321.915 1015.68 322.568 1014.33 323.039 1012.98 323.509 1011.5 323.744 1009.88 323.744L999 323.744 999 322.718C999.574 322.701 1000.04 322.654 1000.4 322.577 1000.75 322.5 1001.03 322.355 1001.23 322.141 1001.43 321.927 1001.57 321.637 1001.64 321.269 1001.7 320.902 1001.74 320.41 1001.74 319.795L1001.74 307.949C1001.74 307.35 1001.71 306.868 1001.66 306.5 1001.61 306.132 1001.5 305.842 1001.32 305.628 1001.15 305.414 1000.91 305.269 1000.6 305.192 1000.3 305.115 999.905 305.06 999.418 305.026Z" fill="#F84E4E" fill-rule="evenodd"/></g></svg>