<svg class="svg-scaled-circle" viewBox="0 0 96 96" xmlns="http://www.w3.org/2000/svg" xmlns:xlink="http://www.w3.org/1999/xlink" id="Icons_Sparrow" overflow="hidden"><path d="M81.84 28 86.84 28C85.3774 26.1195 83.6454 24.4651 81.7 23.09 80.5294 19.1797 76.9317 16.5008 72.85 16.5 66.38 16.5 60.12 24.05 57.43 29.05 44.3927 31.7603 32.8418 39.2517 25.05 50.05L9.39 65.73C8.87085 66.2496 8.87126 67.0918 9.3909 67.6109 9.64007 67.8598 9.9778 67.9998 10.33 68L15.62 68 15.62 73.29C15.6205 74.0245 16.2164 74.6196 16.9509 74.6191 17.3031 74.6189 17.6408 74.4789 17.89 74.23L30.63 61.49C34.9793 63.6793 39.762 64.8716 44.63 64.98L44.63 71.98C43.5254 71.98 42.63 72.8754 42.63 73.98 42.63 75.0846 43.5254 75.98 44.63 75.98L45.83 75.98 49.23 79.38C49.9637 80.1532 51.1853 80.1852 51.9585 79.4515 51.983 79.4283 52.0068 79.4044 52.03 79.38 52.8032 78.6463 52.8352 77.4247 52.1015 76.6515 52.0783 76.6271 52.0545 76.6032 52.03 76.58L51.43 75.98 53.63 75.98C54.7346 75.98 55.63 75.0846 55.63 73.98 55.63 72.8754 54.7346 71.98 53.63 71.98L48.63 71.98 48.63 64.84C49.975 64.7121 51.3108 64.5017 52.63 64.21L52.63 68C51.5254 68 50.63 68.8954 50.63 70L53.63 70C55.8391 70.0045 57.6264 71.799 57.6219 74.0081 57.6209 74.5195 57.5218 75.0259 57.33 75.5 57.6942 75.809 58.1526 75.9853 58.63 76 59.1575 75.9925 59.6607 75.7768 60.03 75.4 60.8032 74.6663 60.8352 73.4447 60.1015 72.6715 60.0783 72.6471 60.0545 72.6232 60.03 72.6L59.43 72 61.63 72C62.7346 72 63.63 71.1046 63.63 70 63.63 68.8954 62.7346 68 61.63 68L56.63 68 56.63 63.06C69.3462 58.4796 77.992 46.6179 78.46 33.11 80.1356 31.8412 81.328 30.0385 81.84 28Z" fill="var(--icon-primary)"/></svg>