<svg class="svg-side" viewBox="0 0 262 370" xmlns="http://www.w3.org/2000/svg" xmlns:xlink="http://www.w3.org/1999/xlink" overflow="hidden"><g transform="translate(-463 -261)"><path d="M594.936 262C625.371 262 650.045 286.687 650.045 317.141 650.045 328.561 646.575 339.17 640.633 347.97L636.132 353.429 648.899 353.429 648.168 354.948 643.305 368.241 644.977 369.149C651.059 373.26 655.058 380.223 655.058 388.12 655.058 399.175 647.22 408.399 636.801 410.532L633.536 410.862 633.039 414.121C632.335 421.052 631.975 428.084 631.975 435.201 631.975 456.552 635.218 477.144 641.239 496.512L643.971 503.98 651.216 506.23C667.534 513.136 678.984 529.304 678.984 548.147 678.984 551.288 678.666 554.354 678.06 557.315L676.304 562.976 679.029 566.349C683.228 571.441 688 576.494 692.661 581.158L704.658 592.147 709.087 593.522C717.851 597.231 724 605.914 724 616.034 724 621.094 722.463 625.795 719.83 629.694L718.91 630.81 704.676 630.81 704.675 631 483.732 630.945 483.735 630.81 469.026 630.81 468.118 629.708C465.518 625.858 464 621.216 464 616.219 464 604.56 472.265 594.832 483.253 592.583L484.587 592.448 484.593 592.172 496.888 580.991C501.549 576.327 505.988 571.441 510.188 566.349L511.726 564.291 512.261 563.764 510.26 557.315C509.655 554.354 509.337 551.288 509.337 548.147 509.337 529.304 520.787 513.136 537.105 506.23L545.472 503.632 547.978 496.512C553.998 477.144 557.242 456.552 557.242 435.201 557.242 428.084 556.881 421.052 556.178 414.121L555.697 410.969 551.371 410.532C540.952 408.399 533.114 399.175 533.114 388.12 533.114 380.223 537.113 373.26 543.195 369.149L545.738 367.768 541.048 354.948 540.317 353.429 553.739 353.429 549.238 347.97C543.296 339.17 539.826 328.561 539.826 317.141 539.826 286.687 564.5 262 594.936 262Z" fill-rule="evenodd"/></g></svg>