<svg class="svg-scaled-circle" viewBox="0 0 73 102" xmlns="http://www.w3.org/2000/svg" xmlns:xlink="http://www.w3.org/1999/xlink" overflow="hidden"><g transform="translate(-85 -554)"><path d="M121.755 554C130.067 554 136.805 560.824 136.805 569.242 136.805 572.399 135.857 575.331 134.234 577.764L133.005 579.273 136.492 579.273 136.292 579.693 134.964 583.367 135.421 583.618C137.082 584.755 138.173 586.679 138.173 588.862 138.173 591.918 136.033 594.468 133.188 595.058L132.296 595.149 132.161 596.05C131.968 597.966 131.87 599.91 131.87 601.877 131.87 607.779 132.756 613.471 134.4 618.825L135.146 620.889 137.124 621.511C141.58 623.42 144.707 627.889 144.707 633.098 144.707 633.966 144.62 634.813 144.455 635.632L143.975 637.197 144.719 638.129C145.866 639.536 147.169 640.933 148.442 642.222L151.718 645.26 152.928 645.64C155.321 646.666 157 649.066 157 651.863 157 653.262 156.58 654.561 155.861 655.639L155.61 655.947 151.723 655.947 151.723 656 91.3884 655.985 91.3892 655.947 87.3725 655.947 87.1245 655.643C86.4146 654.579 86 653.295 86 651.914 86 648.691 88.2571 646.002 91.2576 645.38L91.6219 645.343 91.6235 645.267 94.981 642.176C96.2538 640.887 97.466 639.536 98.6128 638.129L99.033 637.56 99.179 637.414 98.6327 635.632C98.4672 634.813 98.3804 633.966 98.3804 633.098 98.3804 627.889 101.507 623.42 105.963 621.511L108.248 620.792 108.932 618.825C110.576 613.471 111.462 607.779 111.462 601.877 111.462 599.91 111.364 597.966 111.172 596.05L111.04 595.178 109.859 595.058C107.014 594.468 104.873 591.918 104.873 588.862 104.873 586.679 105.965 584.755 107.626 583.618L108.321 583.237 107.04 579.693 106.84 579.273 110.506 579.273 109.277 577.764C107.654 575.331 106.706 572.399 106.706 569.242 106.706 560.824 113.444 554 121.755 554Z" fill="#F84E4E" fill-rule="evenodd"/></g></svg>