<svg width="119" height="116" xmlns="http://www.w3.org/2000/svg" xmlns:xlink="http://www.w3.org/1999/xlink" overflow="hidden"><g transform="translate(-62 -369)"><path d="M140.784 369C150.032 369 157.529 376.56 157.529 385.886 157.529 389.383 156.475 392.632 154.669 395.327L153.302 396.998 157.181 396.998 156.959 397.464 155.481 401.535 155.989 401.813C157.837 403.072 159.052 405.204 159.052 407.622 159.052 411.008 156.671 413.832 153.505 414.486L152.513 414.586 152.362 415.584C152.148 417.707 152.038 419.861 152.038 422.04 152.038 428.578 153.024 434.884 154.853 440.815L155.683 443.102 157.885 443.791C162.843 445.906 166.322 450.857 166.322 456.628 166.322 457.589 166.225 458.528 166.041 459.435L165.508 461.169 166.336 462.202C167.612 463.761 169.062 465.308 170.478 466.737L174.123 470.102 175.469 470.523C178.132 471.659 180 474.318 180 477.417 180 478.966 179.533 480.406 178.733 481.6L178.453 481.942 174.129 481.942 174.128 482 106.996 481.983 106.996 481.942 102.527 481.942 102.251 481.604C101.461 480.425 101 479.004 101 477.474 101 473.903 103.511 470.924 106.85 470.235L107.255 470.194 107.257 470.109 110.993 466.686C112.409 465.257 113.758 463.761 115.034 462.202L115.501 461.571 115.664 461.41 115.056 459.435C114.872 458.528 114.775 457.589 114.775 456.628 114.775 450.857 118.254 445.906 123.213 443.791L125.755 442.996 126.516 440.815C128.346 434.884 129.331 428.578 129.331 422.04 129.331 419.861 129.222 417.707 129.008 415.584L128.862 414.619 127.547 414.486C124.381 413.832 122 411.008 122 407.622 122 405.204 123.215 403.072 125.063 401.813L125.836 401.39 124.411 397.464 124.189 396.998 128.267 396.998 126.899 395.327C125.094 392.632 124.04 389.383 124.04 385.886 124.04 376.56 131.536 369 140.784 369Z" fill="#F84E4E" fill-rule="evenodd"/><path d="M102.784 372C112.032 372 119.529 379.493 119.529 388.736 119.529 392.203 118.475 395.423 116.669 398.094L115.302 399.751 119.181 399.751 118.959 400.212 117.481 404.247 117.989 404.522C119.837 405.77 121.052 407.883 121.052 410.28 121.052 413.636 118.671 416.435 115.505 417.083L114.513 417.183 114.362 418.172C114.148 420.276 114.038 422.41 114.038 424.571 114.038 431.051 115.024 437.301 116.853 443.18L117.683 445.447 119.885 446.13C124.843 448.226 128.322 453.133 128.322 458.852 128.322 459.805 128.225 460.736 128.041 461.635L127.508 463.353 128.336 464.377C129.612 465.922 131.062 467.456 132.478 468.872L136.123 472.207 137.469 472.625C140.132 473.75 142 476.386 142 479.458 142 480.993 141.533 482.42 140.733 483.604L140.453 483.942 136.129 483.942 136.128 484 68.9955 483.983 68.9964 483.942 64.5272 483.942 64.2513 483.608C63.4613 482.439 63 481.03 63 479.514 63 475.975 65.5114 473.022 68.85 472.339L69.2553 472.299 69.2572 472.215 72.9929 468.821C74.4092 467.406 75.7579 465.922 77.0339 464.377L77.5015 463.752 77.6639 463.592 77.056 461.635C76.872 460.736 76.7754 459.805 76.7754 458.852 76.7754 453.133 80.2544 448.226 85.2126 446.13L87.755 445.341 88.5163 443.18C90.3456 437.301 91.3311 431.051 91.3311 424.571 91.3311 422.41 91.2216 420.276 91.0079 418.172L90.8618 417.215 89.5472 417.083C86.3814 416.435 84 413.636 84 410.28 84 407.883 85.215 405.77 87.063 404.522L87.8358 404.103 86.4109 400.212 86.1887 399.751 90.2669 399.751 88.8993 398.094C87.0938 395.423 86.0396 392.203 86.0396 388.736 86.0396 379.493 93.5364 372 102.784 372Z" fill-rule="evenodd"/></g></svg>