<svg width="174" height="38" xmlns="http://www.w3.org/2000/svg" xmlns:xlink="http://www.w3.org/1999/xlink" overflow="hidden"><g transform="translate(-796 -352)"><path d="M958.576 359C961.034 359 963.027 361.007 963.027 363.483 963.027 364.411 962.746 365.274 962.266 365.989L961.903 366.433 962.934 366.433 962.875 366.557 962.482 367.637 962.617 367.711C963.109 368.046 963.432 368.612 963.432 369.254 963.432 370.152 962.799 370.902 961.957 371.076L961.693 371.103 961.653 371.368C961.596 371.931 961.567 372.503 961.567 373.081 961.567 374.817 961.829 376.491 962.315 378.066L962.536 378.673 963.121 378.856C964.439 379.418 965.364 380.732 965.364 382.264 965.364 382.519 965.338 382.769 965.289 383.009L965.148 383.47 965.368 383.744C965.707 384.158 966.092 384.569 966.469 384.948L967.438 385.841 967.795 385.953C968.503 386.255 969 386.961 969 387.783 969 388.195 968.876 388.577 968.663 388.894L968.589 388.985 967.439 388.985 967.439 389 949.594 388.995 949.594 388.985 948.406 388.985 948.333 388.895C948.123 388.582 948 388.205 948 387.798 948 386.85 948.668 386.06 949.555 385.877L949.663 385.866 949.663 385.843 950.656 384.934C951.033 384.555 951.391 384.158 951.731 383.744L951.855 383.576 951.898 383.534 951.736 383.009C951.688 382.769 951.662 382.519 951.662 382.264 951.662 380.732 952.587 379.418 953.905 378.856L954.58 378.645 954.783 378.066C955.269 376.491 955.531 374.817 955.531 373.081 955.531 372.503 955.502 371.931 955.445 371.368L955.406 371.111 955.057 371.076C954.215 370.902 953.582 370.152 953.582 369.254 953.582 368.612 953.905 368.046 954.396 367.711L954.602 367.599 954.223 366.557 954.164 366.433 955.248 366.433 954.885 365.989C954.405 365.274 954.124 364.411 954.124 363.483 954.124 361.007 956.117 359 958.576 359Z" fill="#FFB3B3" fill-rule="evenodd"/><path d="M797.401 354 806.924 354C808.527 354 810.006 354.26 811.359 354.779 812.712 355.299 813.882 356.017 814.868 356.935 815.853 357.853 816.622 358.944 817.173 360.208 817.724 361.472 818 362.849 818 364.338 818 365.758 817.741 367.061 817.223 368.247 816.705 369.433 815.983 370.45 815.055 371.299 814.128 372.147 813.017 372.81 811.723 373.286 810.428 373.762 809.004 374 807.45 374L797 374 797 372.961C797.551 372.944 797.998 372.896 798.341 372.818 798.683 372.74 798.951 372.593 799.143 372.377 799.335 372.16 799.464 371.866 799.531 371.493 799.598 371.121 799.631 370.623 799.631 370L799.631 358C799.631 357.394 799.606 356.905 799.556 356.533 799.506 356.16 799.397 355.866 799.23 355.649 799.063 355.433 798.834 355.286 798.541 355.208 798.249 355.13 797.869 355.074 797.401 355.039L797.401 354ZM803.741 355.584C803.457 355.584 803.315 355.732 803.315 356.026L803.315 369.455C803.315 370.459 803.616 371.204 804.217 371.688 804.819 372.173 805.746 372.416 806.999 372.416 809.187 372.416 810.87 371.732 812.048 370.364 813.226 368.996 813.815 367.004 813.815 364.39 813.815 363.004 813.656 361.766 813.339 360.675 813.021 359.584 812.562 358.662 811.961 357.909 811.359 357.156 810.628 356.58 809.768 356.182 808.907 355.784 807.943 355.584 806.874 355.584L803.741 355.584Z" fill-rule="evenodd"/><path d="M865.441 360C865.991 360 866.536 360.076 867.077 360.229 867.618 360.381 868.092 360.593 868.5 360.864L868.979 360.254 869.67 360.254 869.67 364.091 868.633 364.091C868.225 363.125 867.804 362.431 867.37 362.007 866.935 361.584 866.408 361.372 865.787 361.372 865.291 361.372 864.896 361.499 864.604 361.753 864.311 362.007 864.165 362.346 864.165 362.769 864.165 363.244 864.382 363.693 864.817 364.116 865.251 364.54 865.973 365.005 866.984 365.514 867.693 365.886 868.305 366.25 868.819 366.606 869.333 366.962 869.75 367.322 870.069 367.686 870.388 368.05 870.623 368.431 870.774 368.829 870.925 369.227 871 369.655 871 370.112 871 370.705 870.885 371.239 870.654 371.713 870.424 372.188 870.096 372.594 869.67 372.933 869.245 373.272 868.735 373.534 868.141 373.721 867.547 373.907 866.886 374 866.16 374 865.397 374 864.688 373.903 864.032 373.708 863.376 373.513 862.835 373.229 862.409 372.857L861.824 373.746 861 373.746 861 369.122 862.117 369.122C862.418 370.341 862.853 371.231 863.42 371.789 863.988 372.348 864.723 372.628 865.628 372.628 866.284 372.628 866.793 372.497 867.157 372.234 867.52 371.972 867.702 371.612 867.702 371.154 867.702 370.68 867.481 370.218 867.037 369.769 866.594 369.321 865.876 368.842 864.883 368.334 863.535 367.639 862.569 366.949 861.984 366.263 861.399 365.577 861.106 364.802 861.106 363.938 861.106 363.379 861.217 362.858 861.439 362.376 861.66 361.893 861.962 361.474 862.343 361.118 862.724 360.762 863.181 360.487 863.713 360.292 864.245 360.097 864.821 360 865.441 360Z" fill-rule="evenodd"/><path d="M828.301 360C830.099 360 831.498 360.484 832.499 361.451 833.5 362.418 834 363.776 834 365.524 834 365.795 833.958 365.961 833.873 366.02 833.788 366.079 833.551 366.109 833.16 366.109L824.969 366.109C824.901 366.262 824.867 366.542 824.867 366.949 824.867 368.612 825.227 369.927 825.948 370.895 826.669 371.862 827.648 372.345 828.886 372.345 829.599 372.345 830.307 372.184 831.011 371.862 831.715 371.539 832.397 371.081 833.059 370.487L833.771 371.378C832.228 373.126 830.303 374 827.996 374 826.945 374 825.991 373.835 825.134 373.504 824.278 373.173 823.544 372.706 822.933 372.104 822.323 371.501 821.848 370.784 821.509 369.953 821.17 369.121 821 368.196 821 367.178 821 366.126 821.178 365.163 821.534 364.289 821.89 363.415 822.395 362.66 823.048 362.024 823.701 361.387 824.473 360.891 825.363 360.535 826.253 360.178 827.233 360 828.301 360ZM828.2 361.476C827.47 361.476 826.822 361.778 826.253 362.38 825.685 362.982 825.316 363.75 825.147 364.684L828.836 364.684C829.514 364.684 829.951 364.646 830.146 364.569 830.341 364.493 830.438 364.31 830.438 364.022 830.438 363.275 830.226 362.664 829.802 362.189 829.378 361.714 828.844 361.476 828.2 361.476Z" fill-rule="evenodd"/><path d="M843.533 360C844.318 360 845.046 360.077 845.717 360.231 846.389 360.385 846.964 360.599 847.444 360.873 847.923 361.147 848.302 361.468 848.581 361.837 848.861 362.205 849 362.603 849 363.031 849 363.528 848.856 363.922 848.568 364.213 848.281 364.504 847.893 364.65 847.404 364.65 847.003 364.65 846.65 364.547 846.345 364.341 846.04 364.136 845.739 363.802 845.443 363.339 845.181 362.928 844.959 362.603 844.776 362.363 844.593 362.124 844.423 361.939 844.266 361.811 844.109 361.683 843.952 361.597 843.795 361.554 843.638 361.511 843.446 361.49 843.219 361.49 842.208 361.49 841.423 361.952 840.865 362.877 840.307 363.802 840.028 365.095 840.028 366.756 840.028 368.537 840.364 369.907 841.035 370.866 841.706 371.825 842.67 372.305 843.925 372.305 844.641 372.305 845.355 372.172 846.07 371.906 846.785 371.641 847.465 371.26 848.111 370.763L848.791 371.739C848.128 372.459 847.304 373.015 846.319 373.409 845.334 373.803 844.266 374 843.115 374 842.051 374 841.083 373.833 840.211 373.499 839.339 373.165 838.589 372.699 837.962 372.099 837.334 371.5 836.85 370.776 836.51 369.928 836.17 369.081 836 368.143 836 367.116 836 366.054 836.183 365.086 836.549 364.213 836.915 363.339 837.43 362.59 838.093 361.965 838.755 361.34 839.549 360.856 840.473 360.514 841.397 360.171 842.417 360 843.533 360Z" fill-rule="evenodd"/><path d="M856.818 360 856.818 369.748C856.818 370.44 856.843 370.993 856.893 371.407 856.943 371.822 857.044 372.142 857.194 372.367 857.345 372.591 857.562 372.743 857.846 372.82 858.131 372.898 858.515 372.946 859 372.963L859 374 851.1 374 851.1 372.963C851.568 372.946 851.949 372.889 852.241 372.794 852.534 372.699 852.76 372.544 852.919 372.328 853.077 372.112 853.186 371.809 853.245 371.42 853.303 371.031 853.332 370.535 853.332 369.93L853.332 366.741C853.332 365.738 853.316 364.913 853.282 364.265 853.249 363.617 853.207 363.172 853.157 362.93 853.073 362.498 852.885 362.212 852.592 362.074 852.3 361.936 851.769 361.867 851 361.867L851 360.985 856.818 360Z" fill-rule="evenodd"/><path d="M878.545 360 878.545 369.748C878.545 370.44 878.574 370.993 878.63 371.407 878.686 371.822 878.799 372.142 878.969 372.367 879.138 372.591 879.382 372.743 879.702 372.82 880.022 372.898 880.455 372.946 881 372.963L881 374 872.113 374 872.113 372.963C872.64 372.946 873.067 372.889 873.397 372.794 873.726 372.699 873.98 372.544 874.158 372.328 874.337 372.112 874.459 371.809 874.525 371.42 874.591 371.031 874.624 370.535 874.624 369.93L874.624 366.741C874.624 365.738 874.605 364.913 874.567 364.265 874.53 363.617 874.483 363.172 874.426 362.93 874.332 362.498 874.121 362.212 873.792 362.074 873.462 361.936 872.865 361.867 872 361.867L872 360.985 878.545 360Z" fill-rule="evenodd"/><path d="M889.945 360C891.038 360 892.071 360.174 893.044 360.522 894.018 360.87 894.874 361.349 895.611 361.96 896.348 362.571 896.931 363.296 897.358 364.136 897.786 364.976 898 365.897 898 366.898 898 367.933 897.786 368.884 897.358 369.749 896.931 370.615 896.348 371.361 895.611 371.989 894.874 372.617 894.018 373.109 893.044 373.466 892.071 373.822 891.038 374 889.945 374 888.871 374 887.852 373.826 886.887 373.478 885.923 373.13 885.076 372.642 884.348 372.015 883.62 371.387 883.047 370.636 882.628 369.762 882.209 368.888 882 367.933 882 366.898 882 365.897 882.209 364.972 882.628 364.124 883.047 363.275 883.62 362.545 884.348 361.935 885.076 361.324 885.923 360.848 886.887 360.509 887.852 360.17 888.871 360 889.945 360ZM889.945 361.476C889.399 361.476 888.899 361.608 888.444 361.871 887.989 362.134 887.602 362.503 887.283 362.978 886.965 363.453 886.719 364.026 886.546 364.696 886.373 365.367 886.287 366.109 886.287 366.924 886.287 367.772 886.373 368.536 886.546 369.215 886.719 369.893 886.965 370.47 887.283 370.945 887.602 371.421 887.984 371.79 888.43 372.053 888.876 372.316 889.381 372.447 889.945 372.447 890.51 372.447 891.024 372.316 891.488 372.053 891.952 371.79 892.348 371.416 892.676 370.933 893.003 370.449 893.258 369.868 893.44 369.189 893.622 368.51 893.713 367.755 893.713 366.924 893.713 366.109 893.622 365.371 893.44 364.709 893.258 364.047 893.003 363.475 892.676 362.991 892.348 362.507 891.952 362.134 891.488 361.871 891.024 361.608 890.51 361.476 889.945 361.476Z" fill-rule="evenodd"/><path d="M904.042 360 904.382 362.281 904.486 362.281C905.061 361.556 905.74 360.994 906.524 360.596 907.308 360.199 908.17 360 909.11 360 910.225 360 911.126 360.151 911.814 360.454 912.502 360.756 913.116 361.262 913.656 361.97 913.952 362.368 914.213 362.882 914.44 363.513 914.666 364.144 914.779 365.012 914.779 366.119L914.779 369.774C914.779 370.483 914.801 371.04 914.845 371.446 914.888 371.852 914.984 372.164 915.132 372.38 915.28 372.596 915.502 372.738 915.798 372.807 916.094 372.877 916.495 372.928 917 372.963L917 374 908.823 374 908.823 372.963C909.345 372.946 909.759 372.898 910.064 372.82 910.369 372.743 910.599 372.6 910.756 372.393 910.913 372.185 911.017 371.887 911.07 371.498 911.122 371.109 911.148 370.595 911.148 369.956L911.148 366.43C911.148 365.548 911.096 364.805 910.991 364.2 910.887 363.595 910.717 363.107 910.482 362.735 910.247 362.364 909.938 362.096 909.554 361.932 909.171 361.767 908.692 361.685 908.118 361.685 907.56 361.685 907.081 361.841 906.681 362.152 906.28 362.463 905.932 362.895 905.636 363.448 905.479 363.759 905.344 364.161 905.231 364.654 905.118 365.146 905.061 365.66 905.061 366.196L905.061 369.774C905.061 370.483 905.083 371.04 905.126 371.446 905.17 371.852 905.266 372.164 905.414 372.38 905.562 372.596 905.788 372.738 906.093 372.807 906.398 372.877 906.811 372.928 907.334 372.963L907.334 374 899.105 374 899.105 372.963C899.61 372.928 900.015 372.877 900.319 372.807 900.624 372.738 900.859 372.6 901.025 372.393 901.19 372.185 901.299 371.891 901.351 371.511 901.403 371.131 901.43 370.612 901.43 369.956L901.43 366.715C901.43 365.695 901.412 364.87 901.377 364.239 901.343 363.608 901.299 363.18 901.247 362.956 901.195 362.731 901.125 362.545 901.038 362.398 900.951 362.251 900.82 362.139 900.646 362.061 900.472 361.983 900.254 361.932 899.993 361.906 899.732 361.88 899.401 361.867 899 361.867L899 360.985 904.042 360Z" fill-rule="evenodd"/><path d="M854.987 352C855.555 352 856.032 352.194 856.419 352.581 856.807 352.968 857 353.445 857 354.013 857 354.563 856.807 355.032 856.419 355.419 856.032 355.807 855.555 356 854.987 356 854.437 356 853.968 355.807 853.581 355.419 853.194 355.032 853 354.563 853 354.013 853 353.445 853.194 352.968 853.581 352.581 853.968 352.194 854.437 352 854.987 352Z" fill="#F84E4E" fill-rule="evenodd"/><path d="M876.987 352C877.555 352 878.032 352.194 878.419 352.581 878.807 352.968 879 353.445 879 354.013 879 354.563 878.807 355.032 878.419 355.419 878.032 355.807 877.555 356 876.987 356 876.437 356 875.968 355.807 875.581 355.419 875.194 355.032 875 354.563 875 354.013 875 353.445 875.194 352.968 875.581 352.581 875.968 352.194 876.437 352 876.987 352Z" fill="#F84E4E" fill-rule="evenodd"/><path d="M877.269 366 877.269 376.225 877.38 376.225C877.953 375.468 878.595 374.914 879.307 374.563 880.019 374.212 880.875 374.036 881.873 374.036 883.685 374.036 885.091 374.59 886.089 375.699 886.57 376.253 886.949 376.923 887.226 377.708 887.504 378.493 887.642 379.31 887.642 380.16L887.642 384.455C887.642 385.231 887.661 385.836 887.698 386.27 887.735 386.705 887.832 387.037 887.989 387.268 888.146 387.499 888.382 387.651 888.696 387.725 889.011 387.799 889.445 387.855 890 387.892L890 389 881.318 389 881.318 387.892C881.873 387.873 882.312 387.822 882.636 387.739 882.959 387.656 883.209 387.504 883.385 387.282 883.56 387.06 883.671 386.742 883.717 386.326 883.764 385.91 883.787 385.351 883.787 384.649L883.787 381.241C883.787 379.283 883.574 377.897 883.149 377.084 882.724 376.272 881.993 375.865 880.958 375.865 879.848 375.865 878.97 376.272 878.323 377.084 878.008 377.509 877.763 378.036 877.588 378.664 877.412 379.292 877.324 379.994 877.324 380.77L877.324 384.455C877.324 385.213 877.347 385.809 877.393 386.243 877.44 386.677 877.541 387.014 877.698 387.254 877.856 387.494 878.096 387.651 878.42 387.725 878.743 387.799 879.182 387.855 879.737 387.892L879.737 389 871 389 871 387.892C871.555 387.855 871.999 387.799 872.331 387.725 872.664 387.651 872.914 387.504 873.08 387.282 873.247 387.06 873.353 386.742 873.399 386.326 873.445 385.91 873.469 385.351 873.469 384.649L873.469 373.26C873.469 372.152 873.455 371.279 873.427 370.642 873.399 370.004 873.348 369.519 873.275 369.187 873.219 368.947 873.154 368.757 873.08 368.619 873.006 368.48 872.891 368.369 872.734 368.286 872.576 368.203 872.364 368.148 872.096 368.12 871.828 368.092 871.49 368.078 871.083 368.078L871.083 367.053 877.269 366Z" fill="#F84E4E" fill-rule="evenodd"/><path d="M860.319 367C861.436 367 862.48 367.158 863.451 367.473 864.421 367.789 865.474 368.3 866.61 369.005L867.132 367.278 868.478 367.278 867.929 374.324 866.83 374.324C866.445 372.616 865.699 371.27 864.591 370.286 863.483 369.302 862.141 368.81 860.566 368.81 859.485 368.81 858.524 369.028 857.681 369.465 856.839 369.901 856.129 370.523 855.552 371.33 854.975 372.138 854.536 373.122 854.233 374.282 853.931 375.443 853.78 376.747 853.78 378.195 853.78 381.073 854.362 383.286 855.525 384.837 856.688 386.387 858.405 387.162 860.676 387.162 862.507 387.162 864.023 386.661 865.222 385.658 866.422 384.656 867.278 383.161 867.791 381.175L869 381.175 869 388.722 867.709 388.722 867.324 386.522C865.31 388.174 862.865 389 859.989 389 858.322 389 856.811 388.749 855.456 388.248 854.101 387.747 852.947 387.037 851.994 386.118 851.042 385.199 850.305 384.08 849.783 382.762 849.261 381.444 849 379.977 849 378.362 849 376.673 849.275 375.132 849.824 373.739 850.374 372.347 851.147 371.149 852.146 370.147 853.144 369.144 854.334 368.369 855.717 367.822 857.1 367.274 858.634 367 860.319 367Z" fill="#F84E4E" fill-rule="evenodd"/><path d="M912.886 374C913.49 374 914.09 374.082 914.685 374.245 915.28 374.408 915.801 374.635 916.25 374.926L916.777 374.272 917.537 374.272 917.537 378.383 916.396 378.383C915.948 377.349 915.485 376.604 915.007 376.151 914.529 375.697 913.949 375.47 913.266 375.47 912.72 375.47 912.286 375.606 911.964 375.878 911.642 376.151 911.481 376.514 911.481 376.967 911.481 377.476 911.72 377.956 912.198 378.41 912.676 378.864 913.471 379.363 914.583 379.907 915.363 380.307 916.036 380.697 916.601 381.078 917.167 381.459 917.625 381.845 917.976 382.235 918.327 382.625 918.586 383.034 918.751 383.46 918.917 383.887 919 384.345 919 384.835 919 385.47 918.873 386.042 918.62 386.55 918.366 387.058 918.005 387.494 917.537 387.857 917.069 388.22 916.508 388.501 915.855 388.701 915.202 388.9 914.475 389 913.676 389 912.837 389 912.057 388.896 911.335 388.687 910.613 388.478 910.019 388.174 909.551 387.775L908.907 388.728 908 388.728 908 383.773 909.229 383.773C909.56 385.08 910.038 386.033 910.662 386.632 911.286 387.231 912.096 387.53 913.09 387.53 913.812 387.53 914.373 387.389 914.773 387.108 915.172 386.827 915.372 386.441 915.372 385.951 915.372 385.443 915.129 384.948 914.641 384.467 914.153 383.986 913.363 383.474 912.271 382.929 910.789 382.185 909.726 381.446 909.082 380.711 908.439 379.976 908.117 379.145 908.117 378.22 908.117 377.621 908.239 377.063 908.483 376.545 908.727 376.028 909.058 375.579 909.477 375.198 909.897 374.817 910.399 374.522 910.984 374.313 911.569 374.104 912.203 374 912.886 374Z" fill="#F84E4E" fill-rule="evenodd"/><path d="M925.886 374C926.49 374 927.09 374.082 927.685 374.245 928.28 374.408 928.801 374.635 929.25 374.926L929.777 374.272 930.537 374.272 930.537 378.383 929.396 378.383C928.948 377.349 928.485 376.604 928.007 376.151 927.529 375.697 926.949 375.47 926.266 375.47 925.72 375.47 925.286 375.606 924.964 375.878 924.642 376.151 924.481 376.514 924.481 376.967 924.481 377.476 924.72 377.956 925.198 378.41 925.676 378.864 926.471 379.363 927.583 379.907 928.363 380.307 929.036 380.697 929.601 381.078 930.167 381.459 930.625 381.845 930.976 382.235 931.327 382.625 931.586 383.034 931.751 383.46 931.917 383.887 932 384.345 932 384.835 932 385.47 931.873 386.042 931.62 386.55 931.366 387.058 931.005 387.494 930.537 387.857 930.069 388.22 929.508 388.501 928.855 388.701 928.202 388.9 927.475 389 926.676 389 925.837 389 925.057 388.896 924.335 388.687 923.613 388.478 923.019 388.174 922.551 387.775L921.907 388.728 921 388.728 921 383.773 922.229 383.773C922.56 385.08 923.038 386.033 923.662 386.632 924.286 387.231 925.096 387.53 926.09 387.53 926.812 387.53 927.373 387.389 927.773 387.108 928.172 386.827 928.372 386.441 928.372 385.951 928.372 385.443 928.129 384.948 927.641 384.467 927.153 383.986 926.363 383.474 925.271 382.929 923.789 382.185 922.726 381.446 922.082 380.711 921.439 379.976 921.117 379.145 921.117 378.22 921.117 377.621 921.239 377.063 921.483 376.545 921.727 376.028 922.058 375.579 922.477 375.198 922.897 374.817 923.399 374.522 923.984 374.313 924.569 374.104 925.203 374 925.886 374Z" fill="#F84E4E" fill-rule="evenodd"/><path d="M899.863 374C901.799 374 903.306 374.518 904.384 375.555 905.461 376.591 906 378.046 906 379.918 906 380.209 905.954 380.386 905.863 380.45 905.772 380.514 905.516 380.545 905.096 380.545L896.274 380.545C896.201 380.709 896.164 381.009 896.164 381.445 896.164 383.227 896.552 384.636 897.329 385.673 898.105 386.709 899.16 387.227 900.493 387.227 901.26 387.227 902.023 387.055 902.781 386.709 903.539 386.364 904.274 385.873 904.986 385.236L905.753 386.191C904.091 388.064 902.018 389 899.534 389 898.402 389 897.374 388.823 896.452 388.468 895.53 388.114 894.74 387.614 894.082 386.968 893.425 386.323 892.913 385.555 892.548 384.664 892.183 383.773 892 382.782 892 381.691 892 380.564 892.192 379.532 892.575 378.595 892.959 377.659 893.502 376.85 894.205 376.168 894.909 375.486 895.74 374.955 896.699 374.573 897.658 374.191 898.712 374 899.863 374ZM899.753 375.582C898.968 375.582 898.269 375.905 897.658 376.55 897.046 377.195 896.648 378.018 896.466 379.018L900.438 379.018C901.169 379.018 901.639 378.977 901.849 378.895 902.059 378.814 902.164 378.618 902.164 378.309 902.164 377.509 901.936 376.855 901.479 376.345 901.023 375.836 900.448 375.582 899.753 375.582Z" fill="#F84E4E" fill-rule="evenodd"/><path d="M956.079 359C958.654 359 960.742 361.007 960.742 363.483 960.742 364.411 960.449 365.274 959.946 365.989L959.565 366.433 960.645 366.433 960.583 366.557 960.172 367.637 960.313 367.711C960.828 368.046 961.166 368.612 961.166 369.254 961.166 370.152 960.503 370.902 959.622 371.076L959.345 371.103 959.303 371.368C959.244 371.931 959.213 372.503 959.213 373.081 959.213 374.817 959.488 376.491 959.997 378.066L960.228 378.673 960.841 378.856C962.222 379.418 963.191 380.732 963.191 382.264 963.191 382.519 963.164 382.769 963.113 383.009L962.964 383.47 963.195 383.744C963.55 384.158 963.954 384.569 964.348 384.948L965.363 385.841 965.738 385.953C966.48 386.255 967 386.961 967 387.783 967 388.195 966.87 388.577 966.647 388.894L966.569 388.985 965.365 388.985 965.365 389 946.67 388.995 946.67 388.985 945.425 388.985 945.348 388.895C945.128 388.582 945 388.205 945 387.798 945 386.85 945.699 386.06 946.629 385.877L946.742 385.866 946.742 385.843 947.783 384.934C948.177 384.555 948.553 384.158 948.908 383.744L949.038 383.576 949.084 383.534 948.914 383.009C948.863 382.769 948.836 382.519 948.836 382.264 948.836 380.732 949.805 379.418 951.186 378.856L951.894 378.645 952.106 378.066C952.615 376.491 952.89 374.817 952.89 373.081 952.89 372.503 952.859 371.931 952.8 371.368L952.759 371.111 952.393 371.076C951.511 370.902 950.848 370.152 950.848 369.254 950.848 368.612 951.186 368.046 951.701 367.711L951.916 367.599 951.519 366.557 951.458 366.433 952.593 366.433 952.212 365.989C951.71 365.274 951.416 364.411 951.416 363.483 951.416 361.007 953.504 359 956.079 359Z" fill="#F84E4E" fill-rule="evenodd"/><path d="M943.576 359C946.034 359 948.027 361.007 948.027 363.483 948.027 364.411 947.746 365.274 947.266 365.989L946.903 366.433 947.934 366.433 947.875 366.557 947.482 367.637 947.617 367.711C948.109 368.046 948.432 368.612 948.432 369.254 948.432 370.152 947.799 370.902 946.957 371.076L946.693 371.103 946.653 371.368C946.596 371.931 946.567 372.503 946.567 373.081 946.567 374.817 946.829 376.491 947.315 378.066L947.536 378.673 948.121 378.856C949.439 379.418 950.364 380.732 950.364 382.264 950.364 382.519 950.338 382.769 950.289 383.009L950.148 383.47 950.368 383.744C950.707 384.158 951.092 384.569 951.469 384.948L952.438 385.841 952.795 385.953C953.503 386.255 954 386.961 954 387.783 954 388.195 953.876 388.577 953.663 388.894L953.589 388.985 952.439 388.985 952.439 389 934.594 388.995 934.594 388.985 933.406 388.985 933.333 388.895C933.123 388.582 933 388.205 933 387.798 933 386.85 933.668 386.06 934.555 385.877L934.663 385.866 934.663 385.843 935.656 384.934C936.033 384.555 936.391 384.158 936.731 383.744L936.855 383.576 936.898 383.534 936.736 383.009C936.688 382.769 936.662 382.519 936.662 382.264 936.662 380.732 937.587 379.418 938.905 378.856L939.58 378.645 939.783 378.066C940.269 376.491 940.531 374.817 940.531 373.081 940.531 372.503 940.502 371.931 940.445 371.368L940.406 371.111 940.057 371.076C939.215 370.902 938.582 370.152 938.582 369.254 938.582 368.612 938.905 368.046 939.396 367.711L939.602 367.599 939.223 366.557 939.164 366.433 940.248 366.433 939.885 365.989C939.405 365.274 939.124 364.411 939.124 363.483 939.124 361.007 941.117 359 943.576 359Z" fill="#ABABAB" fill-rule="evenodd"/><path d="M945.576 359C948.034 359 950.027 361.007 950.027 363.483 950.027 364.411 949.746 365.274 949.266 365.989L948.903 366.433 949.934 366.433 949.875 366.557 949.482 367.637 949.617 367.711C950.109 368.046 950.432 368.612 950.432 369.254 950.432 370.152 949.799 370.902 948.957 371.076L948.693 371.103 948.653 371.368C948.596 371.931 948.567 372.503 948.567 373.081 948.567 374.817 948.829 376.491 949.315 378.066L949.536 378.673 950.121 378.856C951.439 379.418 952.364 380.732 952.364 382.264 952.364 382.519 952.338 382.769 952.289 383.009L952.148 383.47 952.368 383.744C952.707 384.158 953.092 384.569 953.469 384.948L954.438 385.841 954.795 385.953C955.503 386.255 956 386.961 956 387.783 956 388.195 955.876 388.577 955.663 388.894L955.589 388.985 954.439 388.985 954.439 389 936.594 388.995 936.594 388.985 935.406 388.985 935.333 388.895C935.123 388.582 935 388.205 935 387.798 935 386.85 935.668 386.06 936.555 385.877L936.663 385.866 936.663 385.843 937.656 384.934C938.033 384.555 938.391 384.158 938.731 383.744L938.855 383.576 938.898 383.534 938.736 383.009C938.688 382.769 938.662 382.519 938.662 382.264 938.662 380.732 939.587 379.418 940.905 378.856L941.58 378.645 941.783 378.066C942.269 376.491 942.531 374.817 942.531 373.081 942.531 372.503 942.502 371.931 942.445 371.368L942.406 371.111 942.057 371.076C941.215 370.902 940.582 370.152 940.582 369.254 940.582 368.612 940.905 368.046 941.396 367.711L941.602 367.599 941.223 366.557 941.164 366.433 942.248 366.433 941.885 365.989C941.405 365.274 941.124 364.411 941.124 363.483 941.124 361.007 943.117 359 945.576 359Z" fill-rule="evenodd"/></g></svg>