<svg class="svg-scaled" viewBox="0 0 136 38" xmlns="http://www.w3.org/2000/svg" xmlns:xlink="http://www.w3.org/1999/xlink" overflow="hidden"><g transform="translate(-796 -239)"><path class="decision-text" d="M889.76 248.384C889.243 248.384 888.769 248.517 888.337 248.782 887.906 249.047 887.539 249.418 887.238 249.897 886.935 250.376 886.703 250.953 886.539 251.628 886.375 252.303 886.293 253.051 886.293 253.872 886.293 254.726 886.375 255.496 886.539 256.179 886.703 256.863 886.935 257.444 887.238 257.923 887.539 258.402 887.902 258.773 888.324 259.038 888.747 259.303 889.226 259.436 889.76 259.436 890.295 259.436 890.783 259.303 891.222 259.038 891.662 258.773 892.038 258.397 892.348 257.91 892.659 257.423 892.9 256.838 893.073 256.154 893.245 255.47 893.332 254.709 893.332 253.872 893.332 253.051 893.245 252.308 893.073 251.641 892.9 250.974 892.659 250.397 892.348 249.91 892.038 249.423 891.662 249.047 891.222 248.782 890.783 248.517 890.295 248.384 889.76 248.384ZM828.122 248.384C827.38 248.384 826.72 248.688 826.142 249.295 825.564 249.901 825.189 250.675 825.016 251.615L828.768 251.615C829.458 251.615 829.903 251.577 830.101 251.5 830.299 251.423 830.399 251.239 830.399 250.948 830.399 250.196 830.183 249.581 829.752 249.102 829.32 248.624 828.777 248.384 828.122 248.384ZM889.76 246.897C890.796 246.897 891.775 247.072 892.697 247.423 893.62 247.773 894.431 248.256 895.13 248.871 895.829 249.487 896.381 250.218 896.786 251.064 897.191 251.91 897.394 252.837 897.394 253.846 897.394 254.889 897.191 255.846 896.786 256.718 896.381 257.59 895.829 258.342 895.13 258.974 894.431 259.607 893.62 260.103 892.697 260.462 891.775 260.821 890.796 261 889.76 261 888.743 261 887.777 260.825 886.862 260.474 885.948 260.124 885.146 259.632 884.456 259 883.766 258.368 883.222 257.611 882.825 256.731 882.429 255.85 882.23 254.889 882.23 253.846 882.23 252.837 882.429 251.906 882.825 251.051 883.222 250.196 883.766 249.461 884.456 248.846 885.146 248.23 885.948 247.752 886.862 247.41 887.777 247.068 888.743 246.897 889.76 246.897ZM878.219 246.897 878.219 256.538C878.219 257.222 878.245 257.769 878.297 258.179 878.349 258.59 878.452 258.906 878.607 259.128 878.763 259.35 878.987 259.5 879.28 259.577 879.574 259.654 879.97 259.701 880.471 259.718L880.471 260.744 872.319 260.744 872.319 259.718C872.802 259.701 873.195 259.645 873.497 259.551 873.799 259.457 874.032 259.303 874.195 259.09 874.359 258.876 874.472 258.577 874.532 258.192 874.592 257.808 874.622 257.316 874.622 256.718L874.622 253.564C874.622 252.572 874.605 251.756 874.571 251.115 874.536 250.474 874.493 250.034 874.441 249.795 874.355 249.367 874.161 249.085 873.859 248.948 873.557 248.812 873.01 248.743 872.216 248.743L872.216 247.871ZM856.655 246.897 856.655 256.538C856.655 257.222 856.681 257.769 856.732 258.179 856.784 258.59 856.888 258.906 857.043 259.128 857.198 259.35 857.422 259.5 857.716 259.577 858.009 259.654 858.406 259.701 858.906 259.718L858.906 260.744 850.755 260.744 850.755 259.718C851.238 259.701 851.63 259.645 851.932 259.551 852.234 259.457 852.467 259.303 852.631 259.09 852.795 258.876 852.907 258.577 852.967 258.192 853.028 257.808 853.058 257.316 853.058 256.718L853.058 253.564C853.058 252.572 853.041 251.756 853.006 251.115 852.972 250.474 852.928 250.034 852.877 249.795 852.79 249.367 852.596 249.085 852.294 248.948 851.993 248.812 851.445 248.743 850.651 248.743L850.651 247.871ZM843.372 246.897C844.148 246.897 844.868 246.974 845.532 247.128 846.196 247.282 846.766 247.495 847.24 247.769 847.715 248.042 848.09 248.363 848.366 248.73 848.642 249.098 848.78 249.495 848.78 249.923 848.78 250.419 848.638 250.812 848.353 251.102 848.068 251.393 847.684 251.538 847.201 251.538 846.805 251.538 846.455 251.436 846.153 251.231 845.852 251.025 845.554 250.692 845.261 250.23 845.002 249.82 844.782 249.495 844.601 249.256 844.42 249.017 844.251 248.833 844.096 248.705 843.941 248.577 843.786 248.491 843.63 248.448 843.475 248.406 843.285 248.384 843.061 248.384 842.061 248.384 841.284 248.846 840.732 249.769 840.18 250.692 839.904 251.983 839.904 253.641 839.904 255.419 840.236 256.786 840.9 257.744 841.564 258.701 842.518 259.18 843.76 259.18 844.467 259.18 845.174 259.047 845.882 258.782 846.589 258.517 847.262 258.137 847.9 257.641L848.573 258.615C847.917 259.333 847.102 259.889 846.127 260.282 845.153 260.675 844.096 260.872 842.958 260.872 841.905 260.872 840.948 260.705 840.085 260.372 839.223 260.039 838.481 259.573 837.86 258.974 837.239 258.376 836.76 257.654 836.424 256.808 836.087 255.961 835.919 255.025 835.919 254 835.919 252.94 836.1 251.974 836.463 251.102 836.825 250.23 837.334 249.483 837.989 248.859 838.645 248.235 839.43 247.752 840.344 247.41 841.258 247.068 842.268 246.897 843.372 246.897ZM828.225 246.897C830.054 246.897 831.477 247.384 832.495 248.359 833.513 249.333 834.021 250.701 834.021 252.461 834.021 252.735 833.978 252.902 833.892 252.961 833.806 253.021 833.564 253.051 833.167 253.051L824.835 253.051C824.766 253.205 824.732 253.487 824.732 253.897 824.732 255.573 825.098 256.897 825.831 257.872 826.565 258.846 827.561 259.333 828.82 259.333 829.545 259.333 830.265 259.171 830.981 258.846 831.697 258.521 832.391 258.06 833.064 257.461L833.789 258.359C832.219 260.12 830.261 261 827.914 261 826.845 261 825.875 260.833 825.003 260.5 824.132 260.167 823.386 259.697 822.765 259.09 822.144 258.483 821.661 257.761 821.316 256.923 820.971 256.085 820.798 255.154 820.798 254.128 820.798 253.068 820.979 252.098 821.342 251.218 821.704 250.337 822.217 249.577 822.881 248.936 823.546 248.294 824.331 247.794 825.236 247.435 826.142 247.077 827.138 246.897 828.225 246.897ZM904.165 246.893 904.501 249.15 904.605 249.15C905.174 248.432 905.847 247.876 906.623 247.483 907.4 247.09 908.254 246.893 909.185 246.893 910.289 246.893 911.182 247.043 911.863 247.342 912.545 247.641 913.153 248.141 913.688 248.842 913.981 249.235 914.24 249.744 914.464 250.368 914.688 250.992 914.8 251.851 914.8 252.945L914.8 256.56C914.8 257.261 914.822 257.813 914.865 258.214 914.908 258.616 915.003 258.924 915.15 259.137 915.296 259.351 915.516 259.492 915.81 259.561 916.103 259.629 916.5 259.68 917 259.714L917 260.74 908.901 260.74 908.901 259.714C909.418 259.697 909.828 259.65 910.13 259.573 910.431 259.496 910.66 259.355 910.815 259.15 910.971 258.945 911.074 258.65 911.126 258.266 911.178 257.881 911.204 257.372 911.204 256.74L911.204 253.253C911.204 252.381 911.152 251.646 911.048 251.047 910.945 250.449 910.776 249.966 910.544 249.599 910.311 249.231 910.005 248.966 909.625 248.804 909.246 248.641 908.771 248.56 908.202 248.56 907.65 248.56 907.175 248.714 906.779 249.022 906.382 249.329 906.037 249.757 905.744 250.304 905.588 250.611 905.455 251.009 905.342 251.496 905.23 251.983 905.174 252.492 905.174 253.022L905.174 256.56C905.174 257.261 905.196 257.813 905.239 258.214 905.282 258.616 905.377 258.924 905.524 259.137 905.67 259.351 905.894 259.492 906.196 259.561 906.498 259.629 906.908 259.68 907.426 259.714L907.426 260.74 899.274 260.74 899.274 259.714C899.775 259.68 900.176 259.629 900.477 259.561 900.78 259.492 901.012 259.355 901.176 259.15 901.34 258.945 901.448 258.654 901.5 258.278 901.551 257.902 901.577 257.389 901.577 256.74L901.577 253.535C901.577 252.526 901.56 251.71 901.526 251.086 901.491 250.462 901.448 250.039 901.396 249.817 901.344 249.594 901.275 249.411 901.189 249.265 901.103 249.12 900.974 249.009 900.801 248.932 900.628 248.855 900.413 248.804 900.154 248.778 899.895 248.752 899.568 248.74 899.171 248.74L899.171 247.868ZM865.427 246.871C865.962 246.871 866.492 246.948 867.019 247.102 867.545 247.256 868.006 247.469 868.403 247.743L868.869 247.128 869.542 247.128 869.542 250.999 868.532 250.999C868.136 250.025 867.726 249.324 867.303 248.897 866.881 248.469 866.367 248.256 865.764 248.256 865.281 248.256 864.897 248.384 864.612 248.64 864.327 248.897 864.185 249.239 864.185 249.666 864.185 250.145 864.396 250.598 864.819 251.025 865.242 251.452 865.945 251.923 866.928 252.435 867.618 252.811 868.213 253.179 868.714 253.538 869.214 253.897 869.619 254.26 869.93 254.628 870.24 254.995 870.469 255.38 870.616 255.782 870.762 256.183 870.835 256.615 870.835 257.076 870.835 257.675 870.723 258.213 870.499 258.692 870.275 259.171 869.956 259.581 869.542 259.923 869.128 260.265 868.632 260.53 868.054 260.718 867.476 260.906 866.833 261 866.126 261 865.384 261 864.694 260.901 864.056 260.705 863.417 260.508 862.891 260.222 862.477 259.846L861.908 260.743 861.106 260.743 861.106 256.077 862.193 256.077C862.486 257.307 862.908 258.205 863.461 258.769 864.013 259.333 864.729 259.615 865.608 259.615 866.247 259.615 866.743 259.483 867.096 259.218 867.45 258.953 867.627 258.589 867.627 258.128 867.627 257.649 867.411 257.183 866.98 256.73 866.549 256.277 865.85 255.794 864.884 255.282 863.573 254.581 862.632 253.884 862.063 253.192 861.494 252.499 861.209 251.717 861.209 250.846 861.209 250.281 861.317 249.756 861.533 249.269 861.748 248.781 862.042 248.358 862.413 247.999 862.784 247.64 863.228 247.363 863.745 247.166 864.263 246.969 864.823 246.871 865.427 246.871ZM803.961 242.564C803.668 242.564 803.521 242.71 803.521 243L803.521 256.257C803.521 257.248 803.832 257.984 804.453 258.462 805.074 258.941 806.031 259.18 807.325 259.18 809.585 259.18 811.323 258.505 812.539 257.154 813.755 255.804 814.363 253.838 814.363 251.257 814.363 249.889 814.2 248.667 813.872 247.59 813.544 246.513 813.07 245.603 812.449 244.859 811.828 244.115 811.073 243.547 810.184 243.154 809.296 242.761 808.3 242.564 807.196 242.564ZM797.414 241 807.247 241C808.903 241 810.43 241.256 811.828 241.769 813.225 242.282 814.432 242.992 815.45 243.898 816.468 244.804 817.262 245.88 817.831 247.129 818.4 248.376 818.685 249.735 818.685 251.206 818.685 252.607 818.417 253.894 817.883 255.065 817.348 256.236 816.602 257.24 815.644 258.077 814.687 258.915 813.54 259.569 812.203 260.039 810.866 260.509 809.395 260.744 807.791 260.744L797 260.744 797 259.718C797.569 259.702 798.031 259.655 798.384 259.578 798.738 259.501 799.014 259.355 799.212 259.142 799.411 258.928 799.545 258.637 799.614 258.27 799.683 257.902 799.717 257.411 799.717 256.795L799.717 244.949C799.717 244.351 799.691 243.868 799.639 243.5 799.588 243.133 799.476 242.842 799.303 242.628 799.131 242.415 798.893 242.269 798.591 242.192 798.29 242.115 797.897 242.06 797.414 242.026Z" fill="#F84E4E" fill-rule="evenodd"/><path class="chess-text" d="M899.841 262.195C899.036 262.195 898.319 262.527 897.692 263.191 897.065 263.855 896.657 264.701 896.47 265.73L900.543 265.73C901.293 265.73 901.775 265.688 901.99 265.604 902.206 265.52 902.313 265.319 902.313 265.001 902.313 264.178 902.079 263.504 901.611 262.98 901.143 262.457 900.553 262.195 899.841 262.195ZM899.953 260.567C901.939 260.567 903.484 261.1 904.589 262.167 905.694 263.233 906.246 264.729 906.246 266.656 906.246 266.956 906.2 267.138 906.106 267.203 906.012 267.269 905.75 267.302 905.319 267.302L896.273 267.302C896.198 267.47 896.161 267.779 896.161 268.228 896.161 270.061 896.559 271.51 897.355 272.577 898.151 273.643 899.232 274.176 900.6 274.176 901.386 274.176 902.168 273.998 902.945 273.643 903.723 273.288 904.476 272.783 905.207 272.128L905.994 273.11C904.289 275.037 902.163 276 899.616 276 898.455 276 897.402 275.818 896.456 275.453 895.51 275.088 894.7 274.574 894.026 273.91 893.352 273.245 892.827 272.455 892.453 271.539 892.078 270.622 891.891 269.603 891.891 268.48 891.891 267.32 892.087 266.259 892.481 265.295 892.874 264.332 893.431 263.499 894.152 262.798 894.873 262.097 895.725 261.549 896.709 261.157 897.692 260.764 898.773 260.567 899.953 260.567ZM926.128 260.539C926.709 260.539 927.285 260.623 927.856 260.792 928.427 260.96 928.928 261.194 929.359 261.493L929.865 260.82 930.595 260.82 930.595 265.057 929.5 265.057C929.069 263.991 928.624 263.224 928.165 262.756 927.706 262.288 927.149 262.054 926.494 262.054 925.969 262.054 925.553 262.195 925.244 262.475 924.935 262.756 924.78 263.13 924.78 263.598 924.78 264.121 925.009 264.617 925.468 265.085 925.927 265.552 926.69 266.067 927.758 266.628 928.507 267.04 929.153 267.442 929.696 267.835 930.24 268.227 930.68 268.625 931.017 269.027 931.354 269.429 931.602 269.85 931.761 270.29 931.92 270.729 932 271.202 932 271.707 932 272.362 931.878 272.951 931.635 273.475 931.391 273.998 931.045 274.447 930.595 274.821 930.146 275.196 929.607 275.486 928.98 275.691 928.353 275.897 927.655 276 926.887 276 926.082 276 925.332 275.892 924.64 275.677 923.947 275.462 923.375 275.149 922.926 274.737L922.308 275.719 921.437 275.719 921.437 270.613 922.617 270.613C922.935 271.959 923.394 272.941 923.993 273.559 924.593 274.176 925.37 274.485 926.325 274.485 927.018 274.485 927.557 274.34 927.94 274.05 928.324 273.76 928.516 273.362 928.516 272.857 928.516 272.333 928.282 271.824 927.814 271.328 927.346 270.832 926.587 270.304 925.539 269.743 924.115 268.976 923.094 268.213 922.476 267.456 921.858 266.698 921.549 265.842 921.549 264.888 921.549 264.271 921.666 263.696 921.901 263.163 922.135 262.63 922.453 262.167 922.856 261.774 923.258 261.381 923.74 261.077 924.302 260.862 924.864 260.647 925.473 260.539 926.128 260.539ZM913.085 260.539C913.666 260.539 914.242 260.623 914.813 260.792 915.384 260.96 915.885 261.194 916.316 261.493L916.822 260.82 917.552 260.82 917.552 265.057 916.456 265.057C916.026 263.991 915.581 263.224 915.122 262.756 914.663 262.288 914.106 262.054 913.45 262.054 912.926 262.054 912.509 262.195 912.2 262.475 911.891 262.756 911.737 263.13 911.737 263.598 911.737 264.121 911.966 264.617 912.425 265.085 912.884 265.552 913.647 266.067 914.715 266.628 915.464 267.04 916.11 267.442 916.653 267.835 917.196 268.227 917.636 268.625 917.973 269.027 918.31 269.429 918.559 269.85 918.718 270.29 918.877 270.729 918.957 271.202 918.957 271.707 918.957 272.362 918.835 272.951 918.591 273.475 918.348 273.998 918.001 274.447 917.552 274.821 917.102 275.196 916.564 275.486 915.937 275.691 915.309 275.897 914.612 276 913.844 276 913.038 276 912.289 275.892 911.596 275.677 910.903 275.462 910.332 275.149 909.882 274.737L909.264 275.719 908.393 275.719 908.393 270.613 909.573 270.613C909.892 271.959 910.351 272.941 910.95 273.559 911.549 274.176 912.327 274.485 913.282 274.485 913.975 274.485 914.513 274.34 914.897 274.05 915.281 273.76 915.473 273.362 915.473 272.857 915.473 272.333 915.239 271.824 914.771 271.328 914.302 270.832 913.544 270.304 912.495 269.743 911.072 268.976 910.051 268.213 909.433 267.456 908.815 266.698 908.506 265.842 908.506 264.888 908.506 264.271 908.623 263.696 908.857 263.163 909.091 262.63 909.41 262.167 909.812 261.774 910.215 261.381 910.697 261.077 911.259 260.862 911.821 260.647 912.43 260.539 913.085 260.539ZM860.574 253.833C861.717 253.833 862.785 253.992 863.777 254.31 864.77 254.628 865.847 255.142 867.008 255.853L867.542 254.114 868.918 254.114 868.356 261.213 867.233 261.213C866.839 259.492 866.076 258.135 864.943 257.144 863.81 256.153 862.438 255.657 860.827 255.657 859.722 255.657 858.739 255.877 857.878 256.316 857.016 256.756 856.29 257.383 855.7 258.196 855.11 259.01 854.661 260.001 854.352 261.171 854.043 262.34 853.888 263.654 853.888 265.113 853.888 268.012 854.483 270.243 855.672 271.805 856.862 273.367 858.617 274.148 860.94 274.148 862.813 274.148 864.362 273.643 865.589 272.633 866.816 271.623 867.691 270.117 868.216 268.115L869.452 268.115 869.452 275.719 868.132 275.719 867.738 273.503C865.678 275.168 863.178 276 860.237 276 858.533 276 856.988 275.747 855.602 275.242 854.216 274.737 853.036 274.022 852.062 273.096 851.088 272.17 850.334 271.043 849.801 269.715 849.267 268.387 849 266.909 849 265.281 849 263.579 849.281 262.026 849.843 260.623 850.405 259.22 851.196 258.014 852.217 257.004 853.237 255.994 854.455 255.213 855.869 254.661 857.283 254.109 858.851 253.833 860.574 253.833ZM877.555 252.43 877.555 262.784 877.667 262.784C878.248 262.017 878.899 261.456 879.62 261.1 880.341 260.745 881.207 260.567 882.219 260.567 884.054 260.567 885.477 261.128 886.489 262.251 886.976 262.812 887.36 263.49 887.641 264.285 887.921 265.08 888.062 265.908 888.062 266.768L888.062 271.118C888.062 271.903 888.081 272.516 888.118 272.956 888.156 273.395 888.254 273.732 888.413 273.966 888.572 274.2 888.811 274.354 889.129 274.429 889.448 274.503 889.888 274.56 890.45 274.597L890.45 275.719 881.657 275.719 881.657 274.597C882.219 274.578 882.663 274.527 882.991 274.443 883.319 274.359 883.572 274.204 883.75 273.98 883.927 273.755 884.04 273.433 884.087 273.012 884.134 272.591 884.157 272.025 884.157 271.314L884.157 267.863C884.157 265.88 883.941 264.477 883.511 263.654 883.08 262.831 882.34 262.419 881.291 262.419 880.168 262.419 879.278 262.831 878.622 263.654 878.304 264.084 878.056 264.617 877.878 265.253 877.7 265.889 877.611 266.6 877.611 267.386L877.611 271.118C877.611 271.885 877.635 272.488 877.681 272.927 877.728 273.367 877.831 273.709 877.99 273.952 878.15 274.195 878.393 274.354 878.721 274.429 879.049 274.503 879.493 274.56 880.055 274.597L880.055 275.719 871.206 275.719 871.206 274.597C871.768 274.56 872.217 274.503 872.554 274.429 872.891 274.354 873.144 274.204 873.313 273.98 873.481 273.755 873.589 273.433 873.636 273.012 873.683 272.591 873.706 272.025 873.706 271.314L873.706 259.782C873.706 258.659 873.692 257.775 873.664 257.13 873.636 256.485 873.584 255.994 873.51 255.657 873.453 255.414 873.388 255.222 873.313 255.082 873.238 254.941 873.121 254.829 872.962 254.745 872.802 254.661 872.587 254.605 872.316 254.577 872.044 254.549 871.702 254.535 871.29 254.535L871.29 253.496ZM854.946 239.004C855.521 239.004 856.004 239.2 856.396 239.592 856.788 239.983 856.984 240.466 856.984 241.04 856.984 241.597 856.788 242.071 856.396 242.463 856.004 242.854 855.521 243.05 854.946 243.05 854.389 243.05 853.914 242.854 853.522 242.463 853.13 242.071 852.934 241.597 852.934 241.04 852.934 240.466 853.13 239.983 853.522 239.592 853.914 239.2 854.389 239.004 854.946 239.004ZM876.724 239C877.299 239 877.783 239.196 878.175 239.587 878.567 239.979 878.763 240.462 878.763 241.036 878.763 241.593 878.567 242.067 878.175 242.458 877.783 242.85 877.299 243.046 876.724 243.046 876.167 243.046 875.692 242.85 875.3 242.458 874.908 242.067 874.712 241.593 874.712 241.036 874.712 240.462 874.908 239.979 875.3 239.587 875.692 239.196 876.167 239 876.724 239Z" fill-rule="evenodd"/></g></svg>