<svg class="svg-scaled-circle" viewbox="0 0 105 103" xmlns="http://www.w3.org/2000/svg" xmlns:xlink="http://www.w3.org/1999/xlink" overflow="hidden"><g transform="translate(-73 -207)"><path d="M141.259 207C149.687 207 156.52 213.824 156.52 222.242 156.52 225.399 155.559 228.331 153.914 230.764L152.667 232.273 156.203 232.273 156 232.693 154.654 236.367 155.117 236.618C156.801 237.755 157.908 239.679 157.908 241.862 157.908 244.918 155.738 247.468 152.853 248.058L151.948 248.149 151.811 249.05C151.616 250.966 151.516 252.91 151.516 254.877 151.516 260.779 152.414 266.471 154.082 271.825L154.838 273.889 156.844 274.511C161.363 276.42 164.534 280.889 164.534 286.098 164.534 286.966 164.446 287.813 164.278 288.632L163.792 290.197 164.546 291.129C165.709 292.536 167.031 293.933 168.322 295.222L171.644 298.26 172.87 298.64C175.297 299.666 177 302.066 177 304.863 177 306.262 176.574 307.561 175.845 308.639L175.591 308.947 171.649 308.947 171.648 309 110.464 308.985 110.465 308.947 106.392 308.947 106.14 308.643C105.42 307.579 105 306.295 105 304.914 105 301.691 107.289 299.002 110.332 298.381L110.701 298.343 110.703 298.267 114.107 295.176C115.398 293.887 116.627 292.536 117.79 291.129L118.217 290.56 118.365 290.414 117.811 288.632C117.643 287.813 117.555 286.966 117.555 286.098 117.555 280.889 120.726 276.42 125.244 274.511L127.561 273.792 128.255 271.825C129.923 266.471 130.821 260.779 130.821 254.877 130.821 252.91 130.721 250.966 130.526 249.05L130.393 248.178 129.195 248.058C126.31 247.468 124.139 244.918 124.139 241.862 124.139 239.679 125.247 237.755 126.931 236.618L127.635 236.237 126.337 232.693 126.134 232.273 129.851 232.273 128.604 230.764C126.959 228.331 125.998 225.399 125.998 222.242 125.998 213.824 132.831 207 141.259 207Z" fill="#F84E4E" fill-rule="evenodd"/><path d="M109.259 207C117.687 207 124.52 213.824 124.52 222.242 124.52 225.399 123.559 228.331 121.914 230.764L120.667 232.273 124.203 232.273 124 232.693 122.654 236.367 123.117 236.618C124.801 237.755 125.908 239.679 125.908 241.862 125.908 244.918 123.738 247.468 120.853 248.058L119.948 248.149 119.811 249.05C119.616 250.966 119.516 252.91 119.516 254.877 119.516 260.779 120.414 266.471 122.082 271.825L122.838 273.889 124.844 274.511C129.363 276.42 132.534 280.889 132.534 286.098 132.534 286.966 132.446 287.813 132.278 288.632L131.792 290.197 132.546 291.129C133.709 292.536 135.031 293.933 136.322 295.222L139.644 298.26 140.87 298.64C143.297 299.666 145 302.066 145 304.863 145 306.262 144.574 307.561 143.845 308.639L143.591 308.947 139.649 308.947 139.648 309 78.4643 308.985 78.4651 308.947 74.3919 308.947 74.1404 308.643C73.4204 307.579 73 306.295 73 304.914 73 301.691 75.2889 299.002 78.3317 298.381L78.7011 298.343 78.7028 298.267 82.1075 295.176C83.3983 293.887 84.6275 292.536 85.7904 291.129L86.2165 290.56 86.3646 290.414 85.8106 288.632C85.6428 287.813 85.5548 286.966 85.5548 286.098 85.5548 280.889 88.7255 276.42 93.2444 274.511L95.5615 273.792 96.2554 271.825C97.9226 266.471 98.8208 260.779 98.8208 254.877 98.8208 252.91 98.721 250.966 98.5262 249.05L98.393 248.178 97.1949 248.058C94.3097 247.468 92.1393 244.918 92.1393 241.862 92.1393 239.679 93.2466 237.755 94.9309 236.618L95.6352 236.237 94.3365 232.693 94.134 232.273 97.8508 232.273 96.6044 230.764C94.9589 228.331 93.9981 225.399 93.9981 222.242 93.9981 213.824 100.831 207 109.259 207Z" fill="var(--icon-primary)" fill-rule="evenodd"/></g></svg>