<svg width="33" height="32" xmlns="http://www.w3.org/2000/svg" xmlns:xlink="http://www.w3.org/1999/xlink" overflow="hidden"><g transform="translate(-1073 -221)"><path d="M1095.08 222C1097.65 222 1099.74 224.007 1099.74 226.483 1099.74 227.411 1099.45 228.274 1098.95 228.989L1098.57 229.433 1099.65 229.433 1099.58 229.557 1099.17 230.637 1099.31 230.711C1099.83 231.046 1100.17 231.612 1100.17 232.254 1100.17 233.152 1099.5 233.902 1098.62 234.076L1098.35 234.103 1098.3 234.368C1098.24 234.931 1098.21 235.503 1098.21 236.081 1098.21 237.817 1098.49 239.491 1099 241.066L1099.23 241.673 1099.84 241.856C1101.22 242.418 1102.19 243.732 1102.19 245.264 1102.19 245.519 1102.16 245.769 1102.11 246.009L1101.96 246.47 1102.19 246.744C1102.55 247.158 1102.95 247.569 1103.35 247.948L1104.36 248.841 1104.74 248.953C1105.48 249.255 1106 249.96 1106 250.783 1106 251.195 1105.87 251.577 1105.65 251.894L1105.57 251.985 1104.36 251.985 1104.36 252 1085.67 251.995 1085.67 251.985 1084.43 251.985 1084.35 251.895C1084.13 251.582 1084 251.205 1084 250.798 1084 249.85 1084.7 249.06 1085.63 248.877L1085.74 248.866 1085.74 248.843 1086.78 247.934C1087.18 247.555 1087.55 247.158 1087.91 246.744L1088.04 246.576 1088.08 246.534 1087.91 246.009C1087.86 245.769 1087.84 245.519 1087.84 245.264 1087.84 243.732 1088.81 242.418 1090.19 241.856L1090.89 241.645 1091.11 241.066C1091.62 239.491 1091.89 237.817 1091.89 236.081 1091.89 235.503 1091.86 234.931 1091.8 234.368L1091.76 234.111 1091.39 234.076C1090.51 233.902 1089.85 233.152 1089.85 232.254 1089.85 231.612 1090.19 231.046 1090.7 230.711L1090.92 230.599 1090.52 229.557 1090.46 229.433 1091.59 229.433 1091.21 228.989C1090.71 228.274 1090.42 227.411 1090.42 226.483 1090.42 224.007 1092.5 222 1095.08 222Z" fill="#F84E4E" fill-rule="evenodd"/><path d="M1084.58 222C1087.03 222 1089.03 224.074 1089.03 226.632 1089.03 227.592 1088.75 228.483 1088.27 229.222L1087.9 229.681 1088.93 229.681 1088.88 229.809 1088.48 230.925 1088.62 231.002C1089.11 231.347 1089.43 231.932 1089.43 232.595 1089.43 233.524 1088.8 234.299 1087.96 234.478L1087.69 234.506 1087.65 234.78C1087.6 235.362 1087.57 235.953 1087.57 236.551 1087.57 238.344 1087.83 240.074 1088.32 241.702L1088.54 242.329 1089.12 242.518C1090.44 243.098 1091.36 244.456 1091.36 246.039 1091.36 246.303 1091.34 246.561 1091.29 246.81L1091.15 247.285 1091.37 247.569C1091.71 247.996 1092.09 248.421 1092.47 248.813L1093.44 249.736 1093.8 249.851C1094.5 250.163 1095 250.893 1095 251.743 1095 252.168 1094.88 252.563 1094.66 252.89L1094.59 252.984 1093.44 252.984 1093.44 253 1075.59 252.995 1075.59 252.984 1074.41 252.984 1074.33 252.891C1074.12 252.568 1074 252.178 1074 251.758 1074 250.779 1074.67 249.962 1075.56 249.773L1075.66 249.761 1075.66 249.738 1076.66 248.799C1077.03 248.407 1077.39 247.996 1077.73 247.569L1077.85 247.396 1077.9 247.351 1077.74 246.81C1077.69 246.561 1077.66 246.303 1077.66 246.039 1077.66 244.456 1078.59 243.098 1079.9 242.518L1080.58 242.3 1080.78 241.702C1081.27 240.074 1081.53 238.344 1081.53 236.551 1081.53 235.953 1081.5 235.362 1081.45 234.78L1081.41 234.515 1081.06 234.478C1080.22 234.299 1079.58 233.524 1079.58 232.595 1079.58 231.932 1079.91 231.347 1080.4 231.002L1080.6 230.886 1080.22 229.809 1080.16 229.681 1081.25 229.681 1080.88 229.222C1080.4 228.483 1080.12 227.592 1080.12 226.632 1080.12 224.074 1082.12 222 1084.58 222Z" fill-rule="evenodd"/></g></svg>