<svg class="svg-scaled-circle" viewbox="0 0 98 98" xmlns="http://www.w3.org/2000/svg" xmlns:xlink="http://www.w3.org/1999/xlink" overflow="hidden"><g transform="translate(-352 -207)"><path d="M401.5 296.342C379.037 296.342 360.658 277.963 360.658 255.5 360.658 233.037 379.037 214.658 401.5 214.658 423.963 214.658 442.342 233.037 442.342 255.5 442.342 277.963 423.963 296.342 401.5 296.342ZM401.5 207C374.697 207 353 228.697 353 255.5 353 282.303 374.697 304 401.5 304 428.303 304 450 282.303 450 255.5 450 228.697 428.303 207 401.5 207Z" fill="#F84E4E" fill-rule="evenodd"/><path d="M404.029 230 399 230 399 255.916C399 256.693 399.251 257.341 399.754 257.73L417.48 276 421 272.372 404.029 254.879 404.029 230Z" fill-rule="evenodd"/><path d="M404 222.5C404 223.881 402.881 225 401.5 225 400.119 225 399 223.881 399 222.5 399 221.119 400.119 220 401.5 220 402.881 220 404 221.119 404 222.5Z" fill-rule="evenodd"/><path d="M404 289C404 290.657 402.881 292 401.5 292 400.119 292 399 290.657 399 289 399 287.343 400.119 286 401.5 286 402.881 286 404 287.343 404 289Z" fill-rule="evenodd"/><path d="M371 255.5C371 256.881 369.881 258 368.5 258 367.119 258 366 256.881 366 255.5 366 254.119 367.119 253 368.5 253 369.881 253 371 254.119 371 255.5Z" fill-rule="evenodd"/><path d="M437 255.5C437 256.881 435.881 258 434.5 258 433.119 258 432 256.881 432 255.5 432 254.119 433.119 253 434.5 253 435.881 253 437 254.119 437 255.5Z" fill-rule="evenodd"/></g></svg>