<svg class="svg-scaled" xmlns="http://www.w3.org/2000/svg" xmlns:xlink="http://www.w3.org/1999/xlink" overflow="hidden" viewBox="0 0 174 38"><g transform="translate(-796 -342)"><path class="left-shadow" d="M951.497 377.393 951.497 375.786C950.361 374.906 949.449 373.947 948.69 372.963 949.425 372.867 949.993 372.26 949.993 371.5 949.993 370.668 949.321 369.997 948.49 369.997L946.962 369.997C945.587 366.807 945.547 363.528 945.883 361.002L946.986 361.002C947.818 361.002 948.49 360.33 948.49 359.498 948.49 358.667 947.818 357.995 946.986 357.995L946.49 357.995C946.754 357.06 946.986 356.492 946.986 356.492L945.819 356.492C946.538 355.692 946.986 354.653 946.986 353.494 946.986 351.007 944.971 349 942.484 349 939.997 349 937.982 351.015 937.982 353.494 937.982 354.653 938.43 355.692 939.149 356.492L937.982 356.492C937.982 356.492 938.214 357.06 938.478 357.995L937.99 357.995C937.158 357.995 936.486 358.667 936.486 359.498 936.486 360.33 937.158 361.002 937.99 361.002L939.093 361.002C939.429 363.528 939.397 366.807 938.014 369.997L936.502 369.997C935.671 369.997 934.999 370.668 934.999 371.5 934.999 372.26 935.575 372.859 936.302 372.963 935.551 373.947 934.631 374.906 933.495 375.786L933.495 377.393 932 379 942.5 379 953 379 951.497 377.393Z" fill="#ABABAB" fill-rule="evenodd"/><path class="decision-text" d="M890.401 351.449C889.88 351.449 889.402 351.583 888.968 351.85 888.534 352.117 888.165 352.492 887.861 352.975 887.557 353.458 887.322 354.04 887.157 354.721 886.992 355.402 886.91 356.157 886.91 356.985 886.91 357.847 886.992 358.623 887.157 359.312 887.322 360.002 887.557 360.589 887.861 361.071 888.165 361.554 888.53 361.929 888.955 362.197 889.381 362.464 889.863 362.598 890.401 362.598 890.94 362.598 891.43 362.464 891.873 362.197 892.316 361.929 892.694 361.55 893.007 361.059 893.319 360.567 893.563 359.976 893.736 359.287 893.91 358.597 893.997 357.829 893.997 356.985 893.997 356.157 893.91 355.407 893.736 354.734 893.563 354.062 893.319 353.48 893.007 352.988 892.694 352.497 892.316 352.117 891.873 351.85 891.43 351.583 890.94 351.449 890.401 351.449ZM828.336 351.449C827.59 351.449 826.925 351.755 826.343 352.367 825.761 352.979 825.384 353.76 825.21 354.708L828.988 354.708C829.683 354.708 830.13 354.669 830.33 354.592 830.529 354.514 830.629 354.329 830.629 354.036 830.629 353.277 830.412 352.656 829.978 352.173 829.544 351.691 828.997 351.449 828.336 351.449ZM890.401 349.949C891.444 349.949 892.429 350.125 893.359 350.479 894.288 350.833 895.104 351.32 895.808 351.94 896.511 352.561 897.067 353.298 897.475 354.152 897.883 355.006 898.088 355.941 898.088 356.959 898.088 358.011 897.883 358.976 897.475 359.856 897.067 360.735 896.511 361.494 895.808 362.132 895.104 362.77 894.288 363.27 893.359 363.632 892.429 363.994 891.444 364.175 890.401 364.175 889.376 364.175 888.404 363.999 887.483 363.645 886.562 363.292 885.755 362.796 885.06 362.158 884.365 361.52 883.818 360.757 883.418 359.869 883.019 358.981 882.819 358.011 882.819 356.959 882.819 355.941 883.019 355.001 883.418 354.139 883.818 353.277 884.365 352.535 885.06 351.915 885.755 351.294 886.562 350.811 887.483 350.466 888.404 350.121 889.376 349.949 890.401 349.949ZM878.78 349.949 878.78 359.675C878.78 360.364 878.807 360.916 878.859 361.33 878.911 361.744 879.015 362.063 879.171 362.287 879.328 362.511 879.553 362.662 879.849 362.74 880.144 362.818 880.543 362.865 881.047 362.882L881.047 363.917 872.84 363.917 872.84 362.882C873.326 362.865 873.721 362.809 874.025 362.714 874.329 362.619 874.564 362.464 874.729 362.248 874.894 362.033 875.007 361.731 875.068 361.343 875.128 360.955 875.159 360.459 875.159 359.856L875.159 356.674C875.159 355.674 875.141 354.851 875.107 354.204 875.072 353.557 875.028 353.113 874.976 352.872 874.89 352.441 874.694 352.156 874.39 352.018 874.086 351.88 873.535 351.811 872.735 351.811L872.735 350.932ZM857.067 349.949 857.067 359.675C857.067 360.364 857.093 360.916 857.145 361.33 857.197 361.744 857.301 362.063 857.458 362.287 857.614 362.511 857.84 362.662 858.135 362.74 858.43 362.818 858.83 362.865 859.334 362.882L859.334 363.917 851.126 363.917 851.126 362.882C851.612 362.865 852.008 362.809 852.312 362.714 852.616 362.619 852.85 362.464 853.015 362.248 853.18 362.033 853.293 361.731 853.354 361.343 853.415 360.955 853.445 360.459 853.445 359.856L853.445 356.674C853.445 355.674 853.428 354.851 853.393 354.204 853.358 353.557 853.315 353.113 853.263 352.872 853.176 352.441 852.98 352.156 852.676 352.018 852.372 351.88 851.821 351.811 851.022 351.811L851.022 350.932ZM843.692 349.949C844.474 349.949 845.199 350.026 845.868 350.182 846.536 350.337 847.11 350.552 847.587 350.828 848.065 351.104 848.443 351.427 848.721 351.798 848.999 352.169 849.138 352.57 849.138 353.001 849.138 353.501 848.994 353.898 848.708 354.191 848.421 354.484 848.034 354.631 847.548 354.631 847.149 354.631 846.797 354.527 846.493 354.32 846.189 354.113 845.889 353.777 845.594 353.311 845.333 352.898 845.112 352.57 844.93 352.328 844.747 352.087 844.578 351.902 844.421 351.772 844.265 351.643 844.109 351.557 843.952 351.514 843.796 351.471 843.605 351.449 843.379 351.449 842.372 351.449 841.59 351.915 841.034 352.846 840.478 353.777 840.201 355.079 840.201 356.752 840.201 358.545 840.535 359.925 841.204 360.89 841.872 361.856 842.832 362.339 844.083 362.339 844.795 362.339 845.507 362.205 846.219 361.938 846.932 361.671 847.609 361.287 848.252 360.787L848.929 361.77C848.269 362.494 847.448 363.055 846.467 363.451 845.485 363.848 844.421 364.046 843.275 364.046 842.215 364.046 841.251 363.878 840.383 363.542 839.514 363.206 838.767 362.736 838.142 362.132 837.517 361.529 837.035 360.8 836.696 359.946 836.357 359.093 836.188 358.148 836.188 357.114 836.188 356.045 836.37 355.07 836.735 354.191 837.1 353.311 837.612 352.557 838.273 351.928 838.932 351.298 839.723 350.811 840.643 350.466 841.564 350.121 842.58 349.949 843.692 349.949ZM828.441 349.949C830.282 349.949 831.715 350.44 832.74 351.423 833.765 352.406 834.277 353.786 834.277 355.562 834.277 355.838 834.234 356.006 834.147 356.066 834.06 356.127 833.817 356.157 833.417 356.157L825.027 356.157C824.958 356.312 824.923 356.596 824.923 357.01 824.923 358.7 825.292 360.037 826.031 361.02 826.769 362.003 827.772 362.494 829.04 362.494 829.77 362.494 830.495 362.33 831.216 362.003 831.937 361.675 832.636 361.209 833.313 360.606L834.043 361.511C832.462 363.287 830.49 364.175 828.128 364.175 827.051 364.175 826.074 364.007 825.197 363.671 824.32 363.335 823.568 362.861 822.943 362.248 822.318 361.636 821.831 360.908 821.484 360.063 821.136 359.218 820.963 358.278 820.963 357.243 820.963 356.174 821.145 355.195 821.51 354.307 821.875 353.419 822.391 352.652 823.06 352.005 823.729 351.358 824.519 350.854 825.431 350.492 826.343 350.13 827.346 349.949 828.441 349.949ZM904.905 349.945 905.244 352.221 905.348 352.221C905.921 351.497 906.599 350.937 907.381 350.54 908.162 350.143 909.022 349.945 909.96 349.945 911.072 349.945 911.971 350.096 912.657 350.398 913.343 350.7 913.955 351.204 914.494 351.911 914.789 352.308 915.05 352.821 915.276 353.45 915.501 354.079 915.614 354.946 915.614 356.05L915.614 359.697C915.614 360.404 915.636 360.96 915.679 361.365 915.723 361.771 915.818 362.081 915.966 362.297 916.114 362.512 916.335 362.654 916.63 362.723 916.926 362.792 917.325 362.844 917.829 362.878L917.829 363.913 909.674 363.913 909.674 362.878C910.195 362.861 910.607 362.814 910.911 362.736 911.215 362.659 911.445 362.516 911.602 362.309 911.758 362.102 911.862 361.805 911.914 361.417 911.966 361.029 911.992 360.516 911.992 359.878L911.992 356.36C911.992 355.481 911.94 354.739 911.836 354.136 911.732 353.532 911.562 353.045 911.328 352.674 911.094 352.303 910.785 352.036 910.403 351.872 910.021 351.708 909.543 351.626 908.97 351.626 908.414 351.626 907.937 351.782 907.537 352.092 907.137 352.402 906.79 352.834 906.495 353.385 906.338 353.696 906.204 354.097 906.091 354.588 905.978 355.08 905.921 355.593 905.921 356.127L905.921 359.697C905.921 360.404 905.943 360.96 905.987 361.365 906.03 361.771 906.126 362.081 906.273 362.297 906.421 362.512 906.647 362.654 906.951 362.723 907.255 362.792 907.667 362.844 908.188 362.878L908.188 363.913 899.981 363.913 899.981 362.878C900.484 362.844 900.888 362.792 901.192 362.723 901.496 362.654 901.731 362.516 901.896 362.309 902.061 362.102 902.169 361.809 902.222 361.43 902.274 361.051 902.3 360.533 902.3 359.878L902.3 356.645C902.3 355.627 902.282 354.804 902.248 354.174 902.213 353.545 902.169 353.118 902.117 352.894 902.065 352.67 901.996 352.484 901.909 352.338 901.822 352.191 901.692 352.079 901.518 352.002 901.344 351.924 901.127 351.872 900.867 351.846 900.606 351.82 900.276 351.807 899.877 351.807L899.877 350.928ZM865.9 349.923C866.438 349.923 866.973 350 867.502 350.155 868.032 350.311 868.497 350.526 868.896 350.802L869.365 350.181 870.043 350.181 870.043 354.087 869.027 354.087C868.627 353.104 868.214 352.397 867.789 351.966 867.363 351.535 866.847 351.319 866.239 351.319 865.752 351.319 865.366 351.449 865.079 351.707 864.792 351.966 864.649 352.311 864.649 352.742 864.649 353.225 864.862 353.682 865.288 354.113 865.713 354.544 866.421 355.018 867.411 355.536 868.106 355.915 868.705 356.286 869.209 356.648 869.713 357.01 870.121 357.376 870.434 357.747 870.746 358.118 870.976 358.506 871.124 358.911 871.272 359.316 871.345 359.752 871.345 360.217 871.345 360.821 871.233 361.364 871.007 361.847 870.781 362.33 870.46 362.744 870.043 363.089 869.626 363.434 869.126 363.701 868.545 363.891 867.963 364.08 867.315 364.175 866.603 364.175 865.857 364.175 865.162 364.076 864.519 363.878 863.876 363.679 863.346 363.391 862.929 363.011L862.356 363.916 861.549 363.916 861.549 359.209 862.643 359.209C862.938 360.45 863.364 361.356 863.92 361.925 864.476 362.494 865.196 362.778 866.082 362.778 866.725 362.778 867.224 362.645 867.58 362.377 867.937 362.11 868.115 361.744 868.115 361.278 868.115 360.795 867.898 360.325 867.463 359.868 867.029 359.411 866.326 358.924 865.353 358.407 864.033 357.7 863.086 356.997 862.513 356.299 861.94 355.6 861.653 354.811 861.653 353.932 861.653 353.363 861.761 352.833 861.979 352.341 862.196 351.85 862.491 351.423 862.864 351.061 863.238 350.699 863.685 350.418 864.206 350.22 864.727 350.022 865.292 349.923 865.9 349.923ZM945.393 348.956C947.902 348.956 949.934 350.965 949.934 353.456 949.934 354.617 949.483 355.658 948.757 356.459L949.934 356.459C949.934 356.459 949.7 357.027 949.434 357.964L949.934 357.964C950.773 357.964 951.451 358.637 951.451 359.47 951.451 360.302 950.773 360.975 949.934 360.975L948.821 360.975C948.482 363.505 948.523 366.788 949.91 369.983L951.451 369.983C952.29 369.983 952.967 370.656 952.967 371.489 952.967 372.25 952.395 372.858 951.652 372.954 952.419 373.939 953.338 374.9 954.484 375.781L954.484 377.391 956 379 945.409 379 934.819 379 936.327 377.391 936.327 375.781C937.472 374.9 938.4 373.939 939.158 372.954 938.424 372.85 937.843 372.25 937.843 371.489 937.843 370.656 938.521 369.983 939.36 369.983L940.884 369.983C942.28 366.788 942.312 363.505 941.973 360.975L940.86 360.975C940.021 360.975 939.344 360.302 939.344 359.47 939.344 358.637 940.021 357.964 940.86 357.964L941.352 357.964C941.086 357.027 940.852 356.459 940.852 356.459L942.03 356.459C941.304 355.658 940.852 354.617 940.852 353.456 940.852 350.973 942.885 348.956 945.393 348.956ZM804.009 345.578C803.714 345.578 803.566 345.725 803.566 346.018L803.566 359.391C803.566 360.391 803.879 361.133 804.504 361.615 805.129 362.098 806.094 362.34 807.396 362.34 809.672 362.34 811.422 361.658 812.646 360.296 813.871 358.934 814.483 356.951 814.483 354.347 814.483 352.967 814.318 351.734 813.988 350.648 813.658 349.561 813.181 348.643 812.555 347.893 811.93 347.143 811.17 346.569 810.275 346.173 809.381 345.776 808.378 345.578 807.266 345.578ZM797.417 344 807.318 344C808.986 344 810.523 344.259 811.93 344.776 813.337 345.293 814.553 346.009 815.578 346.923 816.603 347.837 817.402 348.923 817.975 350.182 818.548 351.441 818.835 352.812 818.835 354.295 818.835 355.709 818.565 357.007 818.027 358.188 817.488 359.369 816.737 360.382 815.773 361.227 814.809 362.072 813.654 362.732 812.308 363.206 810.962 363.68 809.481 363.917 807.865 363.917L797 363.917 797 362.883C797.573 362.866 798.038 362.818 798.394 362.74 798.75 362.663 799.028 362.516 799.228 362.301 799.428 362.085 799.562 361.792 799.632 361.421 799.701 361.051 799.736 360.555 799.736 359.934L799.736 347.984C799.736 347.38 799.71 346.893 799.658 346.522 799.606 346.151 799.493 345.858 799.319 345.643 799.145 345.427 798.906 345.28 798.602 345.203 798.299 345.125 797.903 345.069 797.417 345.035Z" fill="#F84E4E fill-rule="evenodd"/><path class="right-shadow" d="M967.497 377.393 967.497 375.786C966.361 374.906 965.449 373.947 964.69 372.963 965.425 372.867 965.993 372.26 965.993 371.5 965.993 370.668 965.321 369.997 964.49 369.997L962.962 369.997C961.587 366.807 961.547 363.528 961.883 361.002L962.986 361.002C963.818 361.002 964.49 360.33 964.49 359.498 964.49 358.667 963.818 357.995 962.986 357.995L962.49 357.995C962.754 357.06 962.986 356.492 962.986 356.492L961.819 356.492C962.538 355.692 962.986 354.653 962.986 353.494 962.986 351.007 960.971 349 958.484 349 955.997 349 953.982 351.015 953.982 353.494 953.982 354.653 954.43 355.692 955.149 356.492L953.982 356.492C953.982 356.492 954.214 357.06 954.478 357.995L953.99 357.995C953.158 357.995 952.486 358.667 952.486 359.498 952.486 360.33 953.158 361.002 953.99 361.002L955.093 361.002C955.429 363.528 955.397 366.807 954.014 369.997L952.502 369.997C951.671 369.997 950.999 370.668 950.999 371.5 950.999 372.26 951.575 372.859 952.302 372.963 951.551 373.947 950.631 374.906 949.495 375.786L949.495 377.393 948 379 958.5 379 969 379 967.497 377.393Z" fill="#FFB3B3" fill-rule="evenodd"/><path class="chess-text" d="M899.45 365.195C898.651 365.195 897.94 365.527 897.317 366.191 896.695 366.855 896.291 367.701 896.105 368.73L900.147 368.73C900.89 368.73 901.369 368.688 901.582 368.604 901.796 368.52 901.903 368.319 901.903 368.001 901.903 367.178 901.671 366.504 901.206 365.98 900.742 365.457 900.156 365.195 899.45 365.195ZM899.561 363.567C901.531 363.567 903.065 364.1 904.161 365.167 905.258 366.233 905.806 367.729 905.806 369.656 905.806 369.956 905.759 370.138 905.667 370.203 905.574 370.269 905.313 370.302 904.886 370.302L895.909 370.302C895.835 370.47 895.798 370.779 895.798 371.228 895.798 373.061 896.193 374.51 896.983 375.577 897.773 376.643 898.846 377.176 900.203 377.176 900.983 377.176 901.759 376.998 902.53 376.643 903.302 376.288 904.05 375.783 904.775 375.128L905.555 376.11C903.864 378.037 901.754 379 899.227 379 898.075 379 897.029 378.818 896.091 378.453 895.152 378.088 894.348 377.574 893.679 376.91 893.01 376.245 892.49 375.455 892.118 374.539 891.747 373.622 891.561 372.603 891.561 371.48 891.561 370.32 891.756 369.259 892.146 368.295 892.536 367.332 893.089 366.499 893.805 365.798 894.52 365.097 895.366 364.549 896.342 364.157 897.317 363.764 898.391 363.567 899.561 363.567ZM925.535 363.539C926.111 363.539 926.683 363.623 927.25 363.792 927.816 363.96 928.314 364.194 928.741 364.493L929.243 363.82 929.968 363.82 929.968 368.057 928.88 368.057C928.453 366.991 928.012 366.224 927.556 365.756 927.101 365.288 926.548 365.054 925.897 365.054 925.377 365.054 924.964 365.195 924.657 365.475 924.35 365.756 924.197 366.13 924.197 366.598 924.197 367.121 924.425 367.617 924.88 368.085 925.335 368.552 926.093 369.067 927.152 369.628 927.895 370.04 928.537 370.442 929.076 370.835 929.614 371.227 930.051 371.625 930.386 372.027 930.72 372.429 930.966 372.85 931.124 373.29 931.282 373.729 931.361 374.202 931.361 374.707 931.361 375.362 931.241 375.951 930.999 376.475 930.757 376.998 930.414 377.447 929.968 377.821 929.522 378.196 928.987 378.486 928.365 378.691 927.742 378.897 927.05 379 926.288 379 925.489 379 924.745 378.892 924.058 378.677 923.37 378.462 922.803 378.149 922.357 377.737L921.744 378.719 920.88 378.719 920.88 373.613 922.05 373.613C922.366 374.959 922.822 375.941 923.416 376.559 924.011 377.176 924.782 377.485 925.73 377.485 926.418 377.485 926.952 377.34 927.333 377.05 927.714 376.76 927.905 376.362 927.905 375.857 927.905 375.333 927.672 374.824 927.208 374.328 926.743 373.832 925.99 373.304 924.95 372.743 923.537 371.976 922.524 371.213 921.911 370.456 921.298 369.698 920.991 368.842 920.991 367.888 920.991 367.271 921.107 366.696 921.34 366.163 921.572 365.63 921.888 365.167 922.287 364.774 922.687 364.381 923.165 364.077 923.723 363.862 924.281 363.647 924.885 363.539 925.535 363.539ZM912.592 363.539C913.168 363.539 913.74 363.623 914.307 363.792 914.873 363.96 915.37 364.194 915.798 364.493L916.3 363.82 917.025 363.82 917.025 368.057 915.937 368.057C915.51 366.991 915.068 366.224 914.613 365.756 914.158 365.288 913.605 365.054 912.954 365.054 912.434 365.054 912.021 365.195 911.714 365.475 911.407 365.756 911.254 366.13 911.254 366.598 911.254 367.121 911.482 367.617 911.937 368.085 912.392 368.552 913.15 369.067 914.209 369.628 914.952 370.04 915.594 370.442 916.133 370.835 916.671 371.227 917.108 371.625 917.443 372.027 917.777 372.429 918.023 372.85 918.181 373.29 918.339 373.729 918.418 374.202 918.418 374.707 918.418 375.362 918.298 375.951 918.056 376.475 917.814 376.998 917.471 377.447 917.025 377.821 916.578 378.196 916.044 378.486 915.422 378.691 914.799 378.897 914.107 379 913.345 379 912.546 379 911.802 378.892 911.115 378.677 910.427 378.462 909.86 378.149 909.414 377.737L908.801 378.719 907.937 378.719 907.937 373.613 909.107 373.613C909.423 374.959 909.879 375.941 910.473 376.559 911.068 377.176 911.839 377.485 912.787 377.485 913.475 377.485 914.009 377.34 914.39 377.05 914.771 376.76 914.962 376.362 914.962 375.857 914.962 375.333 914.729 374.824 914.265 374.328 913.8 373.832 913.047 373.304 912.007 372.743 910.594 371.976 909.581 371.213 908.968 370.456 908.355 369.698 908.048 368.842 908.048 367.888 908.048 367.271 908.164 366.696 908.397 366.163 908.629 365.63 908.945 365.167 909.344 364.774 909.744 364.381 910.222 364.077 910.78 363.862 911.338 363.647 911.942 363.539 912.592 363.539ZM860.485 356.833C861.619 356.833 862.678 356.992 863.663 357.31 864.648 357.628 865.717 358.142 866.869 358.853L867.399 357.114 868.765 357.114 868.207 364.213 867.092 364.213C866.702 362.492 865.945 361.135 864.82 360.144 863.696 359.153 862.335 358.657 860.736 358.657 859.64 358.657 858.664 358.877 857.809 359.316 856.954 359.756 856.234 360.383 855.649 361.196 855.063 362.01 854.617 363.001 854.311 364.171 854.004 365.34 853.851 366.654 853.851 368.113 853.851 371.012 854.441 373.243 855.621 374.805 856.801 376.367 858.543 377.148 860.848 377.148 862.706 377.148 864.244 376.643 865.461 375.633 866.679 374.623 867.548 373.117 868.068 371.115L869.295 371.115 869.295 378.719 867.984 378.719 867.594 376.503C865.55 378.168 863.069 379 860.151 379 858.46 379 856.926 378.747 855.551 378.242 854.176 377.737 853.005 377.022 852.039 376.096 851.072 375.17 850.324 374.043 849.794 372.715 849.265 371.387 849 369.909 849 368.281 849 366.579 849.279 365.026 849.836 363.623 850.394 362.22 851.179 361.014 852.192 360.004 853.205 358.994 854.413 358.213 855.816 357.661 857.219 357.109 858.776 356.833 860.485 356.833ZM877.335 355.43 877.335 365.784 877.447 365.784C878.023 365.017 878.669 364.456 879.384 364.1 880.1 363.745 880.959 363.567 881.963 363.567 883.784 363.567 885.197 364.128 886.2 365.251 886.683 365.812 887.064 366.49 887.343 367.285 887.622 368.08 887.761 368.908 887.761 369.768L887.761 374.118C887.761 374.903 887.78 375.516 887.817 375.956 887.854 376.395 887.952 376.732 888.11 376.966 888.268 377.2 888.505 377.354 888.821 377.429 889.137 377.503 889.573 377.56 890.131 377.597L890.131 378.719 881.405 378.719 881.405 377.597C881.963 377.578 882.404 377.527 882.729 377.443 883.055 377.359 883.306 377.204 883.482 376.98 883.659 376.755 883.77 376.433 883.817 376.012 883.863 375.591 883.886 375.025 883.886 374.314L883.886 370.863C883.886 368.88 883.673 367.477 883.245 366.654 882.818 365.831 882.084 365.419 881.043 365.419 879.928 365.419 879.045 365.831 878.395 366.654 878.079 367.084 877.832 367.617 877.656 368.253 877.479 368.889 877.391 369.6 877.391 370.386L877.391 374.118C877.391 374.885 877.414 375.488 877.461 375.927 877.507 376.367 877.609 376.709 877.767 376.952 877.925 377.195 878.167 377.354 878.492 377.429 878.817 377.503 879.259 377.56 879.816 377.597L879.816 378.719 871.035 378.719 871.035 377.597C871.593 377.56 872.039 377.503 872.373 377.429 872.708 377.354 872.959 377.204 873.126 376.98 873.293 376.755 873.4 376.433 873.446 376.012 873.493 375.591 873.516 375.025 873.516 374.314L873.516 362.782C873.516 361.659 873.502 360.775 873.474 360.13 873.446 359.485 873.395 358.994 873.321 358.657 873.265 358.414 873.2 358.222 873.126 358.082 873.052 357.941 872.935 357.829 872.777 357.745 872.619 357.661 872.406 357.605 872.136 357.577 871.867 357.549 871.527 357.535 871.119 357.535L871.119 356.496ZM955.443 348.571C957.94 348.571 959.963 350.599 959.963 353.112 959.963 354.284 959.514 355.334 958.791 356.142L959.963 356.142C959.963 356.142 959.73 356.716 959.465 357.661L959.963 357.661C960.798 357.661 961.472 358.34 961.472 359.18 961.472 360.021 960.798 360.699 959.963 360.699L958.855 360.699C958.518 363.253 958.558 366.566 959.939 369.79L961.472 369.79C962.307 369.79 962.982 370.468 962.982 371.309 962.982 372.076 962.412 372.691 961.673 372.787 962.436 373.781 963.351 374.751 964.491 375.64L964.491 377.264 966 378.888 955.46 378.888 944.919 378.888 946.42 377.264 946.42 375.64C947.56 374.751 948.483 373.781 949.238 372.787 948.507 372.682 947.93 372.076 947.93 371.309 947.93 370.468 948.604 369.79 949.439 369.79L950.956 369.79C952.345 366.566 952.377 363.253 952.04 360.699L950.932 360.699C950.097 360.699 949.423 360.021 949.423 359.18 949.423 358.34 950.097 357.661 950.932 357.661L951.422 357.661C951.157 356.716 950.924 356.142 950.924 356.142L952.096 356.142C951.373 355.334 950.924 354.284 950.924 353.112 950.924 350.607 952.947 348.571 955.443 348.571ZM854.9 342.004C855.471 342.004 855.951 342.2 856.34 342.592 856.729 342.983 856.923 343.466 856.923 344.04 856.923 344.597 856.729 345.071 856.34 345.463 855.951 345.854 855.471 346.05 854.9 346.05 854.347 346.05 853.876 345.854 853.487 345.463 853.098 345.071 852.903 344.597 852.903 344.04 852.903 343.466 853.098 342.983 853.487 342.592 853.876 342.2 854.347 342.004 854.9 342.004ZM876.511 342C877.082 342 877.561 342.196 877.95 342.587 878.339 342.979 878.534 343.462 878.534 344.036 878.534 344.593 878.339 345.067 877.95 345.458 877.561 345.85 877.082 346.046 876.511 346.046 875.958 346.046 875.487 345.85 875.098 345.458 874.709 345.067 874.514 344.593 874.514 344.036 874.514 343.462 874.709 342.979 875.098 342.587 875.487 342.196 875.958 342 876.511 342Z" fill-rule="evenodd"/></g></svg>