<svg width="33" height="32" xmlns="http://www.w3.org/2000/svg" xmlns:xlink="http://www.w3.org/1999/xlink" overflow="hidden"><g transform="translate(-1073 -188)"><path d="M1095.08 188C1097.65 188 1099.74 190.074 1099.74 192.632 1099.74 193.592 1099.45 194.483 1098.95 195.222L1098.57 195.681 1099.65 195.681 1099.58 195.809 1099.17 196.925 1099.31 197.002C1099.83 197.347 1100.17 197.932 1100.17 198.595 1100.17 199.524 1099.5 200.299 1098.62 200.478L1098.35 200.506 1098.3 200.78C1098.24 201.362 1098.21 201.953 1098.21 202.551 1098.21 204.344 1098.49 206.074 1099 207.702L1099.23 208.329 1099.84 208.518C1101.22 209.098 1102.19 210.456 1102.19 212.039 1102.19 212.303 1102.16 212.561 1102.11 212.81L1101.96 213.285 1102.19 213.569C1102.55 213.996 1102.95 214.421 1103.35 214.813L1104.36 215.736 1104.74 215.851C1105.48 216.163 1106 216.893 1106 217.743 1106 218.168 1105.87 218.563 1105.65 218.89L1105.57 218.984 1104.36 218.984 1104.36 219 1085.67 218.995 1085.67 218.984 1084.43 218.984 1084.35 218.891C1084.13 218.568 1084 218.178 1084 217.758 1084 216.779 1084.7 215.962 1085.63 215.773L1085.74 215.761 1085.74 215.738 1086.78 214.799C1087.18 214.407 1087.55 213.996 1087.91 213.569L1088.04 213.396 1088.08 213.351 1087.91 212.81C1087.86 212.561 1087.84 212.303 1087.84 212.039 1087.84 210.456 1088.81 209.098 1090.19 208.518L1090.89 208.3 1091.11 207.702C1091.62 206.074 1091.89 204.344 1091.89 202.551 1091.89 201.953 1091.86 201.362 1091.8 200.78L1091.76 200.515 1091.39 200.478C1090.51 200.299 1089.85 199.524 1089.85 198.595 1089.85 197.932 1090.19 197.347 1090.7 197.002L1090.92 196.886 1090.52 195.809 1090.46 195.681 1091.59 195.681 1091.21 195.222C1090.71 194.483 1090.42 193.592 1090.42 192.632 1090.42 190.074 1092.5 188 1095.08 188Z" fill="#F84E4E" fill-rule="evenodd"/><path d="M1084.58 188C1087.03 188 1089.03 190.074 1089.03 192.632 1089.03 193.592 1088.75 194.483 1088.27 195.222L1087.9 195.681 1088.93 195.681 1088.88 195.809 1088.48 196.925 1088.62 197.002C1089.11 197.347 1089.43 197.932 1089.43 198.595 1089.43 199.524 1088.8 200.299 1087.96 200.478L1087.69 200.506 1087.65 200.78C1087.6 201.362 1087.57 201.953 1087.57 202.551 1087.57 204.344 1087.83 206.074 1088.32 207.702L1088.54 208.329 1089.12 208.518C1090.44 209.098 1091.36 210.456 1091.36 212.039 1091.36 212.303 1091.34 212.561 1091.29 212.81L1091.15 213.285 1091.37 213.569C1091.71 213.996 1092.09 214.421 1092.47 214.813L1093.44 215.736 1093.8 215.851C1094.5 216.163 1095 216.893 1095 217.743 1095 218.168 1094.88 218.563 1094.66 218.89L1094.59 218.984 1093.44 218.984 1093.44 219 1075.59 218.995 1075.59 218.984 1074.41 218.984 1074.33 218.891C1074.12 218.568 1074 218.178 1074 217.758 1074 216.779 1074.67 215.962 1075.56 215.773L1075.66 215.761 1075.66 215.738 1076.66 214.799C1077.03 214.407 1077.39 213.996 1077.73 213.569L1077.85 213.396 1077.9 213.351 1077.74 212.81C1077.69 212.561 1077.66 212.303 1077.66 212.039 1077.66 210.456 1078.59 209.098 1079.9 208.518L1080.58 208.3 1080.78 207.702C1081.27 206.074 1081.53 204.344 1081.53 202.551 1081.53 201.953 1081.5 201.362 1081.45 200.78L1081.41 200.515 1081.06 200.478C1080.22 200.299 1079.58 199.524 1079.58 198.595 1079.58 197.932 1079.91 197.347 1080.4 197.002L1080.6 196.886 1080.22 195.809 1080.16 195.681 1081.25 195.681 1080.88 195.222C1080.4 194.483 1080.12 193.592 1080.12 192.632 1080.12 190.074 1082.12 188 1084.58 188Z" fill-rule="evenodd"/></g></svg>