<svg class="svg-scaled-circle" viewBox="0 0 96 96" xmlns="http://www.w3.org/2000/svg" xmlns:xlink="http://www.w3.org/1999/xlink" id="Icons_Drama" overflow="hidden"><path d="M53.5 55.7C49.9 54.1 46.6 51.7 44 48.5 42.5 46.7 41.3 44.8 40.4 42.7L8 46.9 10.7 68.7C12.2 80.8 23.2 89.3 35.3 87.8 47.4 86.3 55.9 75.3 54.4 63.2L53.5 55.7ZM35.6 53.7C36.2 52.8 37.4 52.5 38.4 53L43.1 55.9C44 56.5 44.3 57.7 43.8 58.7 43.4 59.3 42.8 59.7 42.1 59.7 41.7 59.7 41.4 59.6 41.1 59.4L36.4 56.5C35.4 55.9 35.1 54.7 35.6 53.7M20 59 23.6 54.9C24.3 54.1 25.6 54 26.4 54.7 27.2 55.4 27.3 56.7 26.6 57.5L23 61.6C22.6 62 22.1 62.3 21.5 62.3 21 62.3 20.6 62.1 20.2 61.8 19.4 61.1 19.3 59.8 20 59M45.2 74.4C44.3 75.1 43.1 74.9 42.4 74 40.2 71.1 36.7 69.6 33.1 70.1 29.5 70.5 26.5 72.9 25.1 76.2 24.8 77 24 77.4 23.3 77.4 23 77.4 22.8 77.3 22.5 77.2 21.5 76.8 21 75.6 21.4 74.6 23.4 70 27.7 66.7 32.6 66.1 37.6 65.5 42.5 67.6 45.6 71.6 46.3 72.5 46.1 73.8 45.2 74.4" fill="var(--icon-primary)"/><path d="M44.2 8 42.2 29.9C41 42 49.9 52.8 62 53.9 74.1 55 84.8 46.1 85.9 34L87.9 12.1 44.2 8ZM54.1 20.2 59.6 20.7C60.7 20.8 61.5 21.8 61.4 22.9 61.3 23.9 60.4 24.7 59.4 24.7 59.3 24.7 59.3 24.7 59.2 24.7L53.7 24.2C52.6 24.1 51.8 23.1 51.9 22 52 20.9 53 20.1 54.1 20.2M75.6 39.6C72.9 43.3 68.6 45.6 64.1 45.6 63.7 45.6 63.2 45.6 62.8 45.5 57.8 45 53.4 41.9 51.3 37.4 50.8 36.4 51.3 35.2 52.3 34.7 53.3 34.2 54.5 34.7 55 35.7 56.5 39 59.7 41.2 63.2 41.5 66.8 41.8 70.3 40.2 72.4 37.3 73 36.4 74.3 36.2 75.2 36.8 76 37.4 76.2 38.7 75.6 39.6M75.8 26.2C75.7 26.2 75.7 26.2 75.6 26.2L70.1 25.7C69 25.6 68.2 24.6 68.3 23.5 68.4 22.4 69.4 21.6 70.5 21.7L76 22.2C77.1 22.3 77.9 23.3 77.8 24.4 77.7 25.4 76.8 26.2 75.8 26.2" fill="var(--icon-primary)"/></svg>