<svg width="39" height="32" xmlns="http://www.w3.org/2000/svg" xmlns:xlink="http://www.w3.org/1999/xlink" overflow="hidden"><g transform="translate(-1008 -256)"><path d="M1044.5 285.393 1044.5 283.786C1043.36 282.906 1042.45 281.947 1041.69 280.963 1042.43 280.867 1042.99 280.26 1042.99 279.5 1042.99 278.668 1042.32 277.997 1041.49 277.997L1039.96 277.997C1038.59 274.807 1038.55 271.528 1038.88 269.002L1039.99 269.002C1040.82 269.002 1041.49 268.33 1041.49 267.498 1041.49 266.667 1040.82 265.995 1039.99 265.995L1039.49 265.995C1039.75 265.06 1039.99 264.492 1039.99 264.492L1038.82 264.492C1039.54 263.692 1039.99 262.653 1039.99 261.494 1039.99 259.007 1037.97 257 1035.48 257 1033 257 1030.98 259.015 1030.98 261.494 1030.98 262.653 1031.43 263.692 1032.15 264.492L1030.98 264.492C1030.98 264.492 1031.21 265.06 1031.48 265.995L1030.99 265.995C1030.16 265.995 1029.49 266.667 1029.49 267.498 1029.49 268.33 1030.16 269.002 1030.99 269.002L1032.09 269.002C1032.43 271.528 1032.4 274.807 1031.01 277.997L1029.5 277.997C1028.67 277.997 1028 278.668 1028 279.5 1028 280.26 1028.57 280.859 1029.3 280.963 1028.55 281.947 1027.63 282.906 1026.5 283.786L1026.5 285.393 1025 287 1035.5 287 1046 287 1044.5 285.393Z" fill="#FFB3B3" fill-rule="evenodd"/><path d="M1028.5 285.393 1028.5 283.786C1027.36 282.906 1026.45 281.947 1025.69 280.963 1026.43 280.867 1026.99 280.26 1026.99 279.5 1026.99 278.668 1026.32 277.997 1025.49 277.997L1023.96 277.997C1022.59 274.807 1022.55 271.528 1022.88 269.002L1023.99 269.002C1024.82 269.002 1025.49 268.33 1025.49 267.498 1025.49 266.667 1024.82 265.995 1023.99 265.995L1023.49 265.995C1023.75 265.06 1023.99 264.492 1023.99 264.492L1022.82 264.492C1023.54 263.692 1023.99 262.653 1023.99 261.494 1023.99 259.007 1021.97 257 1019.48 257 1017 257 1014.98 259.015 1014.98 261.494 1014.98 262.653 1015.43 263.692 1016.15 264.492L1014.98 264.492C1014.98 264.492 1015.21 265.06 1015.48 265.995L1014.99 265.995C1014.16 265.995 1013.49 266.667 1013.49 267.498 1013.49 268.33 1014.16 269.002 1014.99 269.002L1016.09 269.002C1016.43 271.528 1016.4 274.807 1015.01 277.997L1013.5 277.997C1012.67 277.997 1012 278.668 1012 279.5 1012 280.26 1012.57 280.859 1013.3 280.963 1012.55 281.947 1011.63 282.906 1010.5 283.786L1010.5 285.393 1009 287 1019.5 287 1030 287 1028.5 285.393Z" fill="#ABABAB" fill-rule="evenodd"/><path d="M1041.5 285.393 1041.5 283.786C1040.36 282.906 1039.45 281.947 1038.69 280.963 1039.43 280.867 1039.99 280.26 1039.99 279.5 1039.99 278.668 1039.32 277.997 1038.49 277.997L1036.96 277.997C1035.59 274.807 1035.55 271.528 1035.88 269.002L1036.99 269.002C1037.82 269.002 1038.49 268.33 1038.49 267.498 1038.49 266.667 1037.82 265.995 1036.99 265.995L1036.49 265.995C1036.75 265.06 1036.99 264.492 1036.99 264.492L1035.82 264.492C1036.54 263.692 1036.99 262.653 1036.99 261.494 1036.99 259.007 1034.97 257 1032.48 257 1030 257 1027.98 259.015 1027.98 261.494 1027.98 262.653 1028.43 263.692 1029.15 264.492L1027.98 264.492C1027.98 264.492 1028.21 265.06 1028.48 265.995L1027.99 265.995C1027.16 265.995 1026.49 266.667 1026.49 267.498 1026.49 268.33 1027.16 269.002 1027.99 269.002L1029.09 269.002C1029.43 271.528 1029.4 274.807 1028.01 277.997L1026.5 277.997C1025.67 277.997 1025 278.668 1025 279.5 1025 280.26 1025.57 280.859 1026.3 280.963 1025.55 281.947 1024.63 282.906 1023.5 283.786L1023.5 285.393 1022 287 1032.5 287 1043 287 1041.5 285.393Z" fill="#F84E4E" fill-rule="evenodd"/><path d="M1030.5 285.393 1030.5 283.786C1029.36 282.906 1028.45 281.947 1027.69 280.963 1028.43 280.867 1028.99 280.26 1028.99 279.5 1028.99 278.668 1028.32 277.997 1027.49 277.997L1025.96 277.997C1024.59 274.807 1024.55 271.528 1024.88 269.002L1025.99 269.002C1026.82 269.002 1027.49 268.33 1027.49 267.498 1027.49 266.667 1026.82 265.995 1025.99 265.995L1025.49 265.995C1025.75 265.06 1025.99 264.492 1025.99 264.492L1024.82 264.492C1025.54 263.692 1025.99 262.653 1025.99 261.494 1025.99 259.007 1023.97 257 1021.48 257 1019 257 1016.98 259.015 1016.98 261.494 1016.98 262.653 1017.43 263.692 1018.15 264.492L1016.98 264.492C1016.98 264.492 1017.21 265.06 1017.48 265.995L1016.99 265.995C1016.16 265.995 1015.49 266.667 1015.49 267.498 1015.49 268.33 1016.16 269.002 1016.99 269.002L1018.09 269.002C1018.43 271.528 1018.4 274.807 1017.01 277.997L1015.5 277.997C1014.67 277.997 1014 278.668 1014 279.5 1014 280.26 1014.57 280.859 1015.3 280.963 1014.55 281.947 1013.63 282.906 1012.5 283.786L1012.5 285.393 1011 287 1021.5 287 1032 287 1030.5 285.393Z" fill-rule="evenodd"/></g></svg>