<svg width="33" height="32" xmlns="http://www.w3.org/2000/svg" xmlns:xlink="http://www.w3.org/1999/xlink" overflow="hidden"><g transform="translate(-1011 -222)"><path d="M1041.5 251.393 1041.5 249.786C1040.36 248.906 1039.45 247.947 1038.69 246.963 1039.43 246.867 1039.99 246.26 1039.99 245.5 1039.99 244.668 1039.32 243.997 1038.49 243.997L1036.96 243.997C1035.59 240.807 1035.55 237.528 1035.88 235.002L1036.99 235.002C1037.82 235.002 1038.49 234.33 1038.49 233.498 1038.49 232.667 1037.82 231.995 1036.99 231.995L1036.49 231.995C1036.75 231.06 1036.99 230.492 1036.99 230.492L1035.82 230.492C1036.54 229.692 1036.99 228.653 1036.99 227.494 1036.99 225.007 1034.97 223 1032.48 223 1030 223 1027.98 225.015 1027.98 227.494 1027.98 228.653 1028.43 229.692 1029.15 230.492L1027.98 230.492C1027.98 230.492 1028.21 231.06 1028.48 231.995L1027.99 231.995C1027.16 231.995 1026.49 232.667 1026.49 233.498 1026.49 234.33 1027.16 235.002 1027.99 235.002L1029.09 235.002C1029.43 237.528 1029.4 240.807 1028.01 243.997L1026.5 243.997C1025.67 243.997 1025 244.668 1025 245.5 1025 246.26 1025.57 246.859 1026.3 246.963 1025.55 247.947 1024.63 248.906 1023.5 249.786L1023.5 251.393 1022 253 1032.5 253 1043 253 1041.5 251.393Z" fill="#F84E4E" fill-rule="evenodd"/><path d="M1030.5 251.393 1030.5 249.786C1029.36 248.906 1028.45 247.947 1027.69 246.963 1028.43 246.867 1028.99 246.26 1028.99 245.5 1028.99 244.668 1028.32 243.997 1027.49 243.997L1025.96 243.997C1024.59 240.807 1024.55 237.528 1024.88 235.002L1025.99 235.002C1026.82 235.002 1027.49 234.33 1027.49 233.498 1027.49 232.667 1026.82 231.995 1025.99 231.995L1025.49 231.995C1025.75 231.06 1025.99 230.492 1025.99 230.492L1024.82 230.492C1025.54 229.692 1025.99 228.653 1025.99 227.494 1025.99 225.007 1023.97 223 1021.48 223 1019 223 1016.98 225.015 1016.98 227.494 1016.98 228.653 1017.43 229.692 1018.15 230.492L1016.98 230.492C1016.98 230.492 1017.21 231.06 1017.48 231.995L1016.99 231.995C1016.16 231.995 1015.49 232.667 1015.49 233.498 1015.49 234.33 1016.16 235.002 1016.99 235.002L1018.09 235.002C1018.43 237.528 1018.4 240.807 1017.01 243.997L1015.5 243.997C1014.67 243.997 1014 244.668 1014 245.5 1014 246.26 1014.57 246.859 1015.3 246.963 1014.55 247.947 1013.63 248.906 1012.5 249.786L1012.5 251.393 1011 253 1021.5 253 1032 253 1030.5 251.393Z" fill-rule="evenodd"/></g></svg>