<svg class="svg-side" viewBox="0 0 262 370" xmlns="http://www.w3.org/2000/svg" xmlns:xlink="http://www.w3.org/1999/xlink" overflow="hidden"><g transform="translate(-835 -261)"><path d="M966.936 262C997.371 262 1022.04 286.687 1022.04 317.141 1022.04 328.561 1018.58 339.17 1012.63 347.97L1008.13 353.429 1020.9 353.429 1020.17 354.948 1015.31 368.241 1016.98 369.149C1023.06 373.26 1027.06 380.223 1027.06 388.12 1027.06 399.175 1019.22 408.399 1008.8 410.532L1005.54 410.862 1005.04 414.121C1004.34 421.052 1003.97 428.084 1003.97 435.201 1003.97 456.552 1007.22 477.144 1013.24 496.512L1015.97 503.98 1023.22 506.23C1039.53 513.136 1050.98 529.304 1050.98 548.147 1050.98 551.288 1050.67 554.354 1050.06 557.315L1048.3 562.976 1051.03 566.349C1055.23 571.441 1060 576.494 1064.66 581.158L1076.66 592.147 1081.09 593.522C1089.85 597.231 1096 605.914 1096 616.034 1096 621.094 1094.46 625.795 1091.83 629.694L1090.91 630.81 1076.68 630.81 1076.68 631 855.732 630.945 855.735 630.81 841.026 630.81 840.118 629.708C837.518 625.858 836 621.216 836 616.219 836 604.56 844.265 594.832 855.253 592.583L856.587 592.448 856.593 592.172 868.888 580.991C873.549 576.327 877.988 571.441 882.188 566.349L883.726 564.291 884.261 563.764 882.26 557.315C881.655 554.354 881.337 551.288 881.337 548.147 881.337 529.304 892.787 513.136 909.105 506.23L917.472 503.632 919.978 496.512C925.998 477.144 929.242 456.552 929.242 435.201 929.242 428.084 928.881 421.052 928.178 414.121L927.697 410.969 923.371 410.532C912.952 408.399 905.114 399.175 905.114 388.12 905.114 380.223 909.113 373.26 915.195 369.149L917.738 367.768 913.048 354.948 912.317 353.429 925.739 353.429 921.238 347.97C915.296 339.17 911.826 328.561 911.826 317.141 911.826 286.687 936.5 262 966.936 262Z" fill="#7F7F7F" fill-rule="evenodd"/></g></svg>