<svg class="svg-scaled-circle" viewbox="0 0 124 136" xmlns="http://www.w3.org/2000/svg" xmlns:xlink="http://www.w3.org/1999/xlink" overflow="hidden"><g transform="translate(-203 -191)"><g><g><g><path d="M93 32.3 71.7 11 51 31.6 64.1 31.8 64.1 63.3 32.7 63.3 32.7 51.5 17 51.5 17 79 79.8 79 79.8 32.1Z" transform="matrix(-1.27083 1.55632e-16 -1.22465e-16 -1 326 288)" fill="var(--icon-primary)"/></g></g></g><g><g><g><path d="M93 32.3 71.7 11 51 31.6 64.1 31.8 64.1 63.3 32.7 63.3 32.7 51.5 17 51.5 17 79 79.8 79 79.8 32.1Z" fill="#F84E4E" transform="matrix(1.27083 0 0 1 204 231)"/></g></g></g></g></svg>