<svg class="svg-side" viewBox="0 0 262 370" xmlns="http://www.w3.org/2000/svg" xmlns:xlink="http://www.w3.org/1999/xlink" overflow="hidden"><g transform="translate(-91 -261)"><path d="M222.936 262C253.371 262 278.045 286.687 278.045 317.141 278.045 328.561 274.575 339.17 268.633 347.97L264.132 353.429 276.899 353.429 276.168 354.948 271.305 368.241 272.977 369.149C279.059 373.26 283.058 380.223 283.058 388.12 283.058 399.175 275.22 408.399 264.801 410.532L261.536 410.862 261.039 414.121C260.335 421.052 259.975 428.084 259.975 435.201 259.975 456.552 263.218 477.144 269.239 496.512L271.971 503.98 279.216 506.23C295.534 513.136 306.984 529.304 306.984 548.147 306.984 551.288 306.666 554.354 306.06 557.315L304.304 562.976 307.029 566.349C311.228 571.441 316 576.494 320.661 581.158L332.658 592.147 337.087 593.522C345.851 597.231 352 605.914 352 616.034 352 621.094 350.463 625.795 347.83 629.694L346.91 630.81 332.676 630.81 332.675 631 111.732 630.945 111.735 630.81 97.0262 630.81 96.1181 629.708C93.5182 625.858 92 621.216 92 616.219 92 604.56 100.265 594.832 111.253 592.583L112.587 592.448 112.593 592.172 124.888 580.991C129.549 576.327 133.988 571.441 138.188 566.349L139.726 564.291 140.261 563.764 138.26 557.315C137.655 554.354 137.337 551.288 137.337 548.147 137.337 529.304 148.787 513.136 165.105 506.23L173.472 503.632 175.978 496.512C181.998 477.144 185.242 456.552 185.242 435.201 185.242 428.084 184.881 421.052 184.178 414.121L183.697 410.969 179.371 410.532C168.952 408.399 161.114 399.175 161.114 388.12 161.114 380.223 165.113 373.26 171.195 369.149L173.738 367.768 169.048 354.948 168.317 353.429 181.739 353.429 177.238 347.97C171.296 339.17 167.826 328.561 167.826 317.141 167.826 286.687 192.5 262 222.936 262Z" fill="#FFFFFF" fill-rule="evenodd"/></g></svg>